<?xml version="1.0" encoding="UTF-8"?>
<svg version="1.1" xmlns="http://www.w3.org/2000/svg" width="1016" height="448">
<path d="M0 0 C1.45259454 -0.00445668 1.45259454 -0.00445668 2.93453443 -0.0090034 C6.18238839 -0.01768111 9.43020544 -0.01919788 12.67807007 -0.02069092 C15.00575845 -0.02531979 17.33344607 -0.03034454 19.66113281 -0.03573608 C25.98781954 -0.04885643 32.31449566 -0.05530447 38.64119387 -0.05974674 C42.59503986 -0.06267838 46.54888297 -0.06678339 50.50272751 -0.07125092 C61.45918712 -0.08335909 72.4156442 -0.09374107 83.37211037 -0.09712601 C84.07295906 -0.09734557 84.77380775 -0.09756514 85.49589428 -0.09779136 C86.54962488 -0.09811878 86.54962488 -0.09811878 87.62464297 -0.09845281 C89.04805096 -0.09889627 90.47145895 -0.09934283 91.89486694 -0.09979248 C92.60092034 -0.10001391 93.30697373 -0.10023534 94.03442268 -0.10046348 C105.46598839 -0.10440852 116.89749024 -0.12185429 128.3290313 -0.145152 C140.07798418 -0.1689024 151.82690506 -0.18132956 163.57588232 -0.18249393 C170.1674635 -0.18354119 176.75895461 -0.18943224 183.35051346 -0.20731354 C189.55408554 -0.22381476 195.75750004 -0.22593964 201.96108627 -0.21717453 C204.23340528 -0.21640523 206.50573283 -0.22073269 208.7780304 -0.23063278 C211.8898039 -0.24339123 215.0010226 -0.23745407 218.11279297 -0.22705078 C219.00338681 -0.23510719 219.89398065 -0.24316359 220.81156218 -0.25146413 C229.52023851 -0.18377795 238.65087574 1.34711242 245.43734741 7.14044189 C249.60355339 12.65784981 250.58573769 16.65483847 250.55760193 23.41062927 C250.55888357 24.52928398 250.55888357 24.52928398 250.56019109 25.67053777 C250.56184185 28.17639917 250.55633112 30.68219405 250.5508728 33.18804932 C250.55059082 34.98157245 250.55074889 36.77509571 250.55131531 38.56861877 C250.55160284 43.44432875 250.5457132 48.32001425 250.53874135 53.19571853 C250.53250051 58.28864529 250.53190343 63.38157257 250.53071594 68.47450256 C250.52760479 78.12171757 250.5193943 87.76892129 250.50936645 97.41613132 C250.49611143 110.45027196 250.49070366 123.48441568 250.48486423 136.51856136 C250.47545428 157.05919667 250.45553391 177.59980814 250.43734741 198.14044189 C303.56734741 198.14044189 356.69734741 198.14044189 411.43734741 198.14044189 C411.43734741 200.78044189 411.43734741 203.42044189 411.43734741 206.14044189 C412.16566772 206.24614502 412.89398804 206.35184814 413.64437866 206.46075439 C416.66795282 207.19656125 418.56497001 208.26829297 421.12484741 210.01544189 C421.8918396 210.52848877 422.65883179 211.04153564 423.44906616 211.57012939 C425.43734741 213.14044189 425.43734741 213.14044189 427.43734741 216.14044189 C430.34275824 214.80586857 432.56943942 213.2659016 434.99984741 211.20294189 C446.95787103 202.05594622 466.7521773 202.78030158 481.05844116 204.60137939 C490.47950642 206.68405962 498.97473304 211.02928722 504.43734741 219.14044189 C506.88977175 224.09807686 507.8109457 227.62892591 507.79811096 233.2462616 C507.80067424 233.92602871 507.80323751 234.60579582 507.80587846 235.30616194 C507.81078696 237.56489045 507.79437309 239.82293796 507.77792358 242.081604 C507.77707667 243.70823145 507.77755371 245.33486004 507.7792511 246.96148682 C507.78010998 251.36392564 507.76250166 255.76611803 507.74152923 260.16849971 C507.7227445 264.7742517 507.72101057 269.38000967 507.717453 273.98579407 C507.70813782 282.70148484 507.68353115 291.41706239 507.65340453 300.13270336 C507.61984415 310.05769111 507.60337039 319.98268434 507.58831823 329.90771472 C507.55698111 350.31870096 507.50197561 370.72953205 507.43734741 391.14044189 C487.30734741 391.14044189 467.17734741 391.14044189 446.43734741 391.14044189 C446.43734741 345.27044189 446.43734741 299.40044189 446.43734741 252.14044189 C441.48734741 252.14044189 436.53734741 252.14044189 431.43734741 252.14044189 C431.43734741 298.01044189 431.43734741 343.88044189 431.43734741 391.14044189 C411.30734741 391.14044189 391.17734741 391.14044189 370.43734741 391.14044189 C370.43734741 345.27044189 370.43734741 299.40044189 370.43734741 252.14044189 C365.81734741 252.14044189 361.19734741 252.14044189 356.43734741 252.14044189 C356.43734741 298.01044189 356.43734741 343.88044189 356.43734741 391.14044189 C335.97734741 391.14044189 315.51734741 391.14044189 294.43734741 391.14044189 C294.43734741 342.96044189 294.43734741 294.78044189 294.43734741 245.14044189 C292.12734741 245.14044189 289.81734741 245.14044189 287.43734741 245.14044189 C287.44011279 245.78666976 287.44287817 246.43289762 287.44572735 247.09870815 C287.51208525 262.84924121 287.56167557 278.5997254 287.59278393 294.35036373 C287.60822896 301.96737131 287.62927302 309.58428537 287.66366577 317.20123291 C287.6936408 323.84297598 287.71293959 330.4846513 287.7196129 337.12646013 C287.7235115 340.64072186 287.73262385 344.15478979 287.75453758 347.66898918 C287.77884695 351.59953215 287.77931221 355.52988843 287.77792358 359.46051025 C287.79410233 361.19328972 287.79410233 361.19328972 287.81060791 362.96107483 C287.78084714 370.76188485 287.18701404 377.70335862 282.18734741 383.95294189 C276.65805306 388.35124422 271.44194597 391.24458307 264.27192688 391.28761292 C263.03802216 391.29834587 263.03802216 391.29834587 261.77919006 391.30929565 C260.43809929 391.31332901 260.43809929 391.31332901 259.06991577 391.31744385 C258.1213974 391.32401505 257.17287903 391.33058624 256.19561768 391.33735657 C253.05614132 391.35706712 249.91671284 391.36874921 246.77719116 391.37872314 C245.70236544 391.38279867 244.62753971 391.3868742 243.52014351 391.39107323 C237.82758909 391.41192763 232.13505871 391.42623028 226.44247437 391.43560791 C220.58065591 391.4466515 214.71921923 391.48102985 208.85753536 391.52077961 C204.33543727 391.54700854 199.81342913 391.55530549 195.29126167 391.55888939 C193.13165277 391.56374163 190.97204751 391.57531642 188.81251335 391.59392738 C163.5255712 391.79824969 163.5255712 391.79824969 156.20527649 385.09718323 C151.58829464 380.17211725 150.31559774 376.67617503 150.29017639 369.91114807 C150.27944344 367.95339195 150.27944344 367.95339195 150.26849365 365.95608521 C150.26565339 364.50622582 150.26294166 363.05636619 150.26034546 361.60650635 C150.25408005 360.08211614 150.24743318 358.55772746 150.24043274 357.03334045 C150.21939674 352.02347883 150.20902986 347.01361691 150.19906616 342.00372314 C150.19501824 340.27812369 150.19090131 338.5525244 150.18671608 336.82692528 C150.16766435 328.71857031 150.15343405 320.61022443 150.14510411 312.50185138 C150.13533545 303.14780078 150.10902563 293.79398706 150.06860322 284.44001991 C150.03842016 277.2067712 150.02363311 269.9735903 150.0203231 262.74027985 C150.01797483 258.42179651 150.00904385 254.10356621 149.98386192 249.78515053 C149.96053815 245.71966006 149.9563651 241.65458848 149.96662331 237.58904839 C149.96711776 236.10077647 149.96082405 234.61248363 149.94706726 233.12427521 C149.87679039 225.0678407 149.92721155 218.97053536 154.43734741 212.14044189 C164.22105952 202.45026432 176.29893269 204.14044189 189.43734741 204.14044189 C189.43734741 152.66044189 189.43734741 101.18044189 189.43734741 48.14044189 C184.81734741 48.14044189 180.19734741 48.14044189 175.43734741 48.14044189 C175.43734741 94.01044189 175.43734741 139.88044189 175.43734741 187.14044189 C154.97734741 187.14044189 134.51734741 187.14044189 113.43734741 187.14044189 C113.43734741 138.96044189 113.43734741 90.78044189 113.43734741 41.14044189 C110.79734741 41.14044189 108.15734741 41.14044189 105.43734741 41.14044189 C105.43734741 89.32044189 105.43734741 137.50044189 105.43734741 187.14044189 C85.30734741 187.14044189 65.17734741 187.14044189 44.43734741 187.14044189 C44.43734741 164.37044189 44.43734741 141.60044189 44.43734741 118.14044189 C39.81734741 118.14044189 35.19734741 118.14044189 30.43734741 118.14044189 C30.43734741 140.91044189 30.43734741 163.68044189 30.43734741 187.14044189 C9.97734741 187.14044189 -10.48265259 187.14044189 -31.56265259 187.14044189 C-31.63040306 165.37412543 -31.68565391 143.60789449 -31.7180891 121.84149933 C-31.73355038 111.73472821 -31.75462581 101.62802731 -31.78897095 91.52130127 C-31.81889589 82.7110958 -31.83823297 73.9009412 -31.84491807 65.09068632 C-31.84882508 60.42679262 -31.85799174 55.76304441 -31.87984276 51.09919739 C-31.90025679 46.70632619 -31.90647646 42.31365997 -31.90197563 37.92074585 C-31.90279864 36.31153753 -31.90873498 34.70232211 -31.92026901 33.09315491 C-31.98549971 23.52019548 -31.81491003 16.11448269 -26.43765259 7.89044189 C-18.9286907 0.70795661 -9.90978733 -0.00949874 0 0 Z M30.43734741 48.14044189 C30.43734741 55.40044189 30.43734741 62.66044189 30.43734741 70.14044189 C35.05734741 70.14044189 39.67734741 70.14044189 44.43734741 70.14044189 C44.43734741 62.88044189 44.43734741 55.62044189 44.43734741 48.14044189 C39.81734741 48.14044189 35.19734741 48.14044189 30.43734741 48.14044189 Z M211.43734741 252.14044189 C211.43734741 282.50044189 211.43734741 312.86044189 211.43734741 344.14044189 C216.05734741 344.14044189 220.67734741 344.14044189 225.43734741 344.14044189 C225.43734741 313.78044189 225.43734741 283.42044189 225.43734741 252.14044189 C220.81734741 252.14044189 216.19734741 252.14044189 211.43734741 252.14044189 Z " fill="#000000" transform="translate(506.5626525878906,-0.14044189453125)"/>
<path d="M0 0 C2.04301049 -0.00202471 4.08602028 -0.00493944 6.12902832 -0.00869751 C10.39549694 -0.01310216 14.66177618 -0.00674992 18.92822266 0.00732422 C24.3716871 0.02441484 29.81470763 0.01456366 35.25815582 -0.00339317 C39.47230315 -0.01428138 43.68634683 -0.01076163 47.90049744 -0.0030098 C49.90657098 -0.00102169 51.91265422 -0.00341768 53.91871643 -0.01044846 C79.8119678 -0.08130294 79.8119678 -0.08130294 89.3125 8.19140625 C93.38881123 13.62328324 94.41515967 19.55803898 94.32951355 26.19396973 C94.33207682 26.93584455 94.3346401 27.67771937 94.33728105 28.44207525 C94.34218603 30.90497059 94.32578124 33.36724016 94.30932617 35.83007812 C94.30847919 37.60463446 94.30895644 39.37919184 94.31065369 41.15374756 C94.31151227 45.95486644 94.29390866 50.75575918 94.27293181 55.55682564 C94.2541422 60.58031179 94.25241277 65.60380347 94.24885559 70.62731934 C94.23954184 80.13274838 94.21493711 89.63807357 94.18480712 99.14345694 C94.14496272 111.99323674 94.12880282 124.84304507 94.11130047 137.69287109 C94.08311556 157.92813765 94.02334151 178.16318506 93.96875 198.3984375 C143.79875 198.3984375 193.62875 198.3984375 244.96875 198.3984375 C244.96875 200.3784375 244.96875 202.3584375 244.96875 204.3984375 C245.85175781 204.36363281 246.73476563 204.32882813 247.64453125 204.29296875 C257.83853747 204.06302876 267.87037413 204.48518981 275.96875 211.3984375 C280.13495597 216.91584541 281.11714028 220.91283408 281.08900452 227.66862488 C281.09028615 228.78727958 281.09028615 228.78727958 281.09159368 229.92853338 C281.09324443 232.43439478 281.08773371 234.94018965 281.08227539 237.44604492 C281.08199341 239.23956806 281.08215147 241.03309131 281.0827179 242.82661438 C281.08300543 247.70232436 281.07711579 252.57800986 281.07014394 257.45371413 C281.06390309 262.54664089 281.06330602 267.63956818 281.06211853 272.73249817 C281.05900738 282.37971318 281.05079688 292.02691689 281.04076904 301.67412692 C281.02751402 314.70826757 281.02210625 327.74241129 281.01626682 340.77655697 C281.00685686 361.31719228 280.98693649 381.85780374 280.96875 402.3984375 C330.79875 402.3984375 380.62875 402.3984375 431.96875 402.3984375 C431.96875 417.5784375 431.96875 432.7584375 431.96875 448.3984375 C406.42130193 448.48874553 380.87398318 448.56242411 355.32641602 448.60568619 C343.46413456 448.62630778 331.60195935 448.65442084 319.73974609 448.70019531 C309.40014671 448.74007522 299.06062428 448.76587324 288.72095013 448.77479148 C283.24659893 448.78000423 277.77246787 448.792248 272.29818726 448.82135773 C267.14360826 448.84854488 261.9893397 448.85687574 256.83469582 448.85086823 C254.94489669 448.85196698 253.05508699 448.8599011 251.16534996 448.8752594 C248.57974433 448.89523914 245.99530201 448.89034793 243.40966797 448.87945557 C242.66645389 448.89110693 241.9232398 448.9027583 241.15750408 448.91476274 C235.15896445 448.84672452 229.91310761 447.11037612 225.43580437 442.98649812 C220.7336505 437.64139368 219.66964498 432.86283226 219.72824097 425.92570496 C219.72567769 424.8106123 219.72567769 424.8106123 219.72306263 423.67299253 C219.71977372 421.18708838 219.73076147 418.70145537 219.74169922 416.21557617 C219.74226346 414.43161017 219.74194652 412.64764371 219.74081421 410.86367798 C219.74024021 406.02317866 219.75200222 401.18277838 219.76596212 396.34230208 C219.77846156 391.28275666 219.77963936 386.22320899 219.78201294 381.16365051 C219.78823001 371.58377596 219.80464393 362.00394704 219.82471192 352.42409259 C219.84706382 341.51729816 219.85806257 330.61050156 219.86810279 319.70368993 C219.88900994 297.26857963 219.92459307 274.83351305 219.96875 252.3984375 C215.34875 252.3984375 210.72875 252.3984375 205.96875 252.3984375 C205.96875 298.2684375 205.96875 344.1384375 205.96875 391.3984375 C185.50875 391.3984375 165.04875 391.3984375 143.96875 391.3984375 C143.96875 343.2184375 143.96875 295.0384375 143.96875 245.3984375 C141.32875 245.3984375 138.68875 245.3984375 135.96875 245.3984375 C135.96875 293.5784375 135.96875 341.7584375 135.96875 391.3984375 C115.50875 391.3984375 95.04875 391.3984375 73.96875 391.3984375 C73.96875 343.2184375 73.96875 295.0384375 73.96875 245.3984375 C67.03875 245.7284375 60.10875 246.0584375 52.96875 246.3984375 C51.96714844 248.60660156 50.96554688 250.81476563 49.93359375 253.08984375 C48.93744563 255.28451005 47.94102494 257.4790524 46.94458008 259.67358398 C46.26460927 261.17150228 45.58491135 262.6695445 44.90551758 264.16772461 C44.24585819 265.62229554 43.58469419 267.07618505 42.92202759 268.52938843 C42.25920734 269.99490285 41.60627766 271.46492812 40.96298218 272.93911743 C39.38597614 276.51266098 37.75391616 279.83767349 35.59423828 283.09716797 C32.81430423 287.49123433 30.41803647 291.42695251 31.40734863 296.76498413 C33.2012917 302.35869798 35.85380149 307.52106728 38.58062744 312.70910645 C40.74649561 316.90523198 42.61036692 321.22637389 44.51171875 325.546875 C45.27438719 327.23544753 46.03962656 328.92286111 46.80737305 330.60913086 C48.41706408 334.14776571 50.0242402 337.68751111 51.62817383 341.22875977 C55.16488691 349.03462135 58.70906774 356.83698418 62.27372742 364.63012695 C63.59713065 367.52494638 64.91661221 370.42154334 66.23550415 373.31842041 C67.13807113 375.29610438 68.04684605 377.27085571 68.95581055 379.24560547 C69.48988525 380.41881348 70.02395996 381.59202148 70.57421875 382.80078125 C71.03981201 383.81648193 71.50540527 384.83218262 71.98510742 385.87866211 C72.96875 388.3984375 72.96875 388.3984375 72.96875 391.3984375 C51.51875 391.3984375 30.06875 391.3984375 7.96875 391.3984375 C2.35875 377.5384375 -3.25125 363.6784375 -9.03125 349.3984375 C-9.36125 363.2584375 -9.69125 377.1184375 -10.03125 391.3984375 C-29.83125 391.3984375 -49.63125 391.3984375 -70.03125 391.3984375 C-70.03125 329.6884375 -70.03125 267.9784375 -70.03125 204.3984375 C-50.23125 204.3984375 -30.43125 204.3984375 -10.03125 204.3984375 C-9.70125 217.5984375 -9.37125 230.7984375 -9.03125 244.3984375 C-7.96003906 241.59472656 -6.88882813 238.79101562 -5.78515625 235.90234375 C-4.74991047 233.19823944 -3.71374589 230.49448893 -2.67749023 227.79077148 C-1.9558236 225.90637457 -1.23511808 224.0216093 -0.51538086 222.13647461 C0.5171887 219.43246416 1.55316726 216.72978187 2.58984375 214.02734375 C2.91278915 213.17942764 3.23573456 212.33151154 3.56846619 211.457901 C5.85487829 205.51230921 5.85487829 205.51230921 6.96875 204.3984375 C15.21875 204.3984375 23.46875 204.3984375 31.96875 204.3984375 C31.96875 176.0184375 31.96875 147.6384375 31.96875 118.3984375 C27.34875 118.3984375 22.72875 118.3984375 17.96875 118.3984375 C17.96875 141.1684375 17.96875 163.9384375 17.96875 187.3984375 C-2.16125 187.3984375 -22.29125 187.3984375 -43.03125 187.3984375 C-43.1215819 165.3713517 -43.19525044 143.34441613 -43.23849869 121.31719208 C-43.2591143 111.08932356 -43.28721584 100.8615784 -43.33300781 90.63378906 C-43.37290614 81.7181078 -43.39869009 72.80251589 -43.40760398 63.88674784 C-43.41281364 59.16691431 -43.42503746 54.44733637 -43.45417023 49.72758484 C-43.48138664 45.28214312 -43.48968244 40.83706147 -43.48368073 36.39154434 C-43.48477818 34.76297675 -43.49269502 33.1343967 -43.5080719 31.50590134 C-43.59242548 22.10885374 -43.43130658 15.09723851 -37.49609375 7.41015625 C-27.1087104 -1.59578481 -12.87718289 -0.04513147 0 0 Z M17.96875 48.3984375 C17.96875 55.6584375 17.96875 62.9184375 17.96875 70.3984375 C22.58875 70.3984375 27.20875 70.3984375 31.96875 70.3984375 C31.96875 63.1384375 31.96875 55.8784375 31.96875 48.3984375 C27.34875 48.3984375 22.72875 48.3984375 17.96875 48.3984375 Z " fill="#000000" transform="translate(72.03125,-0.3984375)"/>
<path d="M0 0 C20.46 0 40.92 0 62 0 C62 23.76 62 47.52 62 72 C66.62 72 71.24 72 76 72 C76 48.24 76 24.48 76 0 C96.13 0 116.26 0 137 0 C137 65.34 137 130.68 137 198 C186.83 198 236.66 198 288 198 C288 199.98 288 201.96 288 204 C288.95519531 203.96519531 289.91039062 203.93039063 290.89453125 203.89453125 C301.31125098 203.67643443 311.64857224 203.8707324 320 211 C323.92284813 216.19512319 325.12282492 219.75445521 325.14717102 226.19132996 C325.15790398 228.13646484 325.15790398 228.13646484 325.16885376 230.12089539 C325.17169402 231.56130957 325.17440575 233.00172402 325.17700195 234.44213867 C325.1832674 235.9566768 325.18991427 237.47121338 325.19691467 238.98574829 C325.21795028 243.96314423 325.22831754 248.94054046 325.23828125 253.91796875 C325.24232919 255.6324242 325.24644612 257.34687949 325.25063133 259.06133461 C325.269683 267.11736384 325.2839133 275.17338391 325.2922433 283.22943133 C325.30201185 292.52292208 325.3283214 301.81617441 325.36874419 311.10958117 C325.39892798 318.29612115 325.41371438 325.48259287 325.41702431 332.669195 C325.4193725 336.95973337 325.42830246 341.25001703 325.45348549 345.54048729 C325.47681054 349.57971373 325.48098182 353.61851855 325.47072411 357.65779495 C325.47022968 359.13639162 325.4765225 360.61500935 325.49028015 362.0935421 C325.57573637 371.82587337 325.27924891 378.52171625 318.3125 385.8125 C310.63267024 390.88408569 303.17000677 391.43134771 294.14624023 391.34057617 C292.39015615 391.34111858 292.39015615 391.34111858 290.59859562 391.34167194 C286.83508348 391.33944518 283.07202543 391.31665593 279.30859375 391.29296875 C276.97465225 391.28855408 274.64070777 391.2854959 272.3067627 391.28381348 C263.68362963 391.26812914 255.06056028 391.22624531 246.4375 391.1875 C227.153125 391.125625 207.86875 391.06375 188 391 C188 342.82 188 294.64 188 245 C185.36 245 182.72 245 180 245 C180 249.95 180 254.9 180 260 C159.54 260 139.08 260 118 260 C118 257.36 118 254.72 118 252 C113.38 252 108.76 252 104 252 C104 282.36 104 312.72 104 344 C108.62 344 113.24 344 118 344 C118 321.56 118 299.12 118 276 C138.46 276 158.92 276 180 276 C180 313.95 180 351.9 180 391 C150.95274249 391.16065467 150.95274249 391.16065467 136.55779362 391.20101547 C128.78672009 391.22314189 121.01581916 391.25118932 113.24487305 391.30175781 C106.4302736 391.34608162 99.61586106 391.36916334 92.80112648 391.37950897 C90.20610428 391.38687825 87.61109186 391.40126857 85.01614952 391.42292023 C81.37081491 391.45211613 77.72624397 391.45594909 74.08081055 391.45410156 C73.01697144 391.46848267 71.95313232 391.48286377 70.85705566 391.49768066 C63.19364327 391.45587627 54.94683833 390.49513792 48.99055004 385.22052383 C44.55482607 380.30647173 42.75227946 376.33101996 42.73257446 369.65045166 C42.71977951 367.69063354 42.71977951 367.69063354 42.70672607 365.69122314 C42.70742509 364.244995 42.70834815 362.79876694 42.70947266 361.35253906 C42.70348759 359.82799958 42.6966821 358.30346313 42.68911743 356.77893066 C42.67144505 352.63825037 42.66676145 348.49765273 42.66548586 344.35693836 C42.66406407 341.76848555 42.65979389 339.18005374 42.65449142 336.59160614 C42.63598503 327.55682542 42.62782132 318.52210373 42.62939453 309.48730469 C42.63059517 301.07350566 42.60950967 292.65996347 42.5779072 284.24622941 C42.55172493 277.01719657 42.5410281 269.7882475 42.54230535 262.55916762 C42.54281454 258.24406773 42.53715587 253.92919593 42.51594925 249.61414337 C42.49653461 245.55272367 42.49646418 241.49174883 42.51098251 237.43031311 C42.51306793 235.94366046 42.50838559 234.45697974 42.4962616 232.97037506 C42.43488471 224.91994698 42.49629875 218.8257041 47 212 C55.24540454 203.83342342 64.86746263 204 76 204 C76 174.96 76 145.92 76 116 C71.38 116 66.76 116 62 116 C62 139.43 62 162.86 62 187 C41.54 187 21.08 187 0 187 C0 125.29 0 63.58 0 0 Z M250 252 C250 282.36 250 312.72 250 344 C254.62 344 259.24 344 264 344 C264 313.64 264 283.28 264 252 C259.38 252 254.76 252 250 252 Z " fill="#000000" transform="translate(324,0)"/>
<path d="M0 0 C20.46 0 40.92 0 62 0 C62 3.96 62 7.92 62 12 C87.08 12 112.16 12 138 12 C138 27.51 138 43.02 138 59 C112.92 59 87.84 59 62 59 C62 85.73 62 112.46 62 140 C66.62 140 71.24 140 76 140 C76 116.9 76 93.8 76 70 C96.46 70 116.92 70 138 70 C138.08021762 93.30767476 138.08021762 93.30767476 138.09765625 103.28125 C138.10958848 110.07327418 138.1236693 116.86524417 138.15087891 123.65722656 C138.17268955 129.13613604 138.18458594 134.61498736 138.18975449 140.09393692 C138.19343551 142.17899617 138.20062348 144.26405242 138.21146011 146.34908676 C138.22608434 149.28080754 138.22797339 152.21229129 138.22705078 155.14404297 C138.23424133 155.99641037 138.24143188 156.84877777 138.24884033 157.72697449 C138.22443412 164.94491038 138.09460012 173.74003214 133.0625 179.375 C122.83990143 189.20346317 108.81478501 187.58892095 95.62109375 187.53125 C93.44116544 187.53394891 91.26123831 187.53783464 89.08131409 187.54284668 C84.52813171 187.54872165 79.97526467 187.5402425 75.42211914 187.52148438 C69.60628156 187.49868276 63.791182 187.51183881 57.97537136 187.53577423 C53.47901414 187.55027469 48.98282998 187.54560695 44.48646736 187.53526306 C42.34280369 187.53260823 40.19912394 187.53582141 38.05547905 187.54518127 C35.05276121 187.55541851 32.05121525 187.53974623 29.04858398 187.51757812 C28.17609512 187.52567505 27.30360626 187.53377197 26.40467834 187.54211426 C18.77341338 187.43851531 11.99276688 185.48335975 6.0625 180.5625 C1.54756546 174.95303588 -0.12854164 170.44560048 -0.12025452 163.26066589 C-0.12162918 162.33664978 -0.12300385 161.41263367 -0.12442017 160.46061707 C-0.12082489 159.45936295 -0.11722961 158.45810883 -0.11352539 157.42651367 C-0.11367142 156.36264435 -0.11381744 155.29877502 -0.1139679 154.20266724 C-0.113272 150.69108023 -0.10549468 147.17954647 -0.09765625 143.66796875 C-0.09579092 141.23130828 -0.09436756 138.79464743 -0.09336853 136.35798645 C-0.08955239 129.94811974 -0.07972978 123.53827572 -0.06866455 117.12841797 C-0.05843104 110.58626614 -0.05386675 104.04411065 -0.04882812 97.50195312 C-0.03810673 84.66795878 -0.02104111 71.83398128 0 59 C-4.95 59 -9.9 59 -15 59 C-15 43.49 -15 27.98 -15 12 C-10.05 12 -5.1 12 0 12 C0 8.04 0 4.08 0 0 Z " fill="#000000" transform="translate(780,0)"/>
<path d="M0 0 C1.34003334 -0.00503792 1.34003334 -0.00503792 2.70713806 -0.01017761 C5.6560099 -0.01966414 8.60482479 -0.02162971 11.55371094 -0.02270508 C13.61008731 -0.02591974 15.66646346 -0.02928398 17.72283936 -0.03279114 C22.03349335 -0.03877701 26.3441273 -0.04063164 30.65478516 -0.04003906 C36.16353724 -0.03993758 41.67216002 -0.05357748 47.1808815 -0.07081127 C51.42924584 -0.08196143 55.67757925 -0.08395733 59.92595673 -0.08342934 C61.95601598 -0.08460538 63.98607613 -0.08900595 66.01612091 -0.0967617 C68.86370235 -0.10662054 71.71100733 -0.10366015 74.55859375 -0.09765625 C75.80270271 -0.10608551 75.80270271 -0.10608551 77.07194519 -0.11468506 C86.57125689 -0.06409898 94.84640462 1.58771858 102.03808594 8.14526367 C106.82438911 14.88300726 107.18722851 21.94620599 107.13574219 29.94604492 C107.13473511 30.68802124 107.13372803 31.42999756 107.13269043 32.19445801 C107.12748406 34.9489091 107.11352289 37.70333804 107.10058594 40.45776367 C107.07996094 46.62463867 107.05933594 52.79151367 107.03808594 59.14526367 C86.57808594 59.14526367 66.11808594 59.14526367 45.03808594 59.14526367 C45.03808594 55.51526367 45.03808594 51.88526367 45.03808594 48.14526367 C40.41808594 48.14526367 35.79808594 48.14526367 31.03808594 48.14526367 C31.03808594 55.40526367 31.03808594 62.66526367 31.03808594 70.14526367 C32.62153809 70.12955322 34.20499023 70.11384277 35.83642578 70.09765625 C41.74425109 70.04311436 47.65205437 70.00882536 53.56005859 69.98046875 C56.11087799 69.96543731 58.66167179 69.94500663 61.21240234 69.91894531 C64.89134057 69.88231395 68.56993529 69.86548022 72.24902344 69.85229492 C73.37859467 69.83681107 74.50816589 69.82132721 75.67196655 69.80537415 C84.86071638 69.80344692 93.84211972 70.95338576 101.03808594 77.14526367 C106.4140279 83.96745089 107.15426357 90.04140339 107.19921875 98.64428711 C107.20418365 99.3703717 107.20914856 100.0964563 107.21426392 100.84454346 C107.22879088 103.23125174 107.23567194 105.61789355 107.24121094 108.00463867 C107.245452 109.23537487 107.245452 109.23537487 107.24977875 110.49097443 C107.26473372 114.83374856 107.27398625 119.17648979 107.27832031 123.51928711 C107.2837969 127.98209689 107.30781829 132.44460036 107.33629227 136.9073143 C107.35500975 140.35964815 107.36012909 143.81190957 107.36165619 147.26428986 C107.36466314 148.9083651 107.37262465 150.55243967 107.38584137 152.19646454 C107.53647227 172.37473686 107.53647227 172.37473686 102.27636719 179.54760742 C101.64085937 180.05420898 101.00535156 180.56081055 100.35058594 181.08276367 C99.72796875 181.60741211 99.10535156 182.13206055 98.46386719 182.67260742 C91.74144721 186.75369008 85.80032756 187.58819369 78.10888672 187.54931641 C77.14842438 187.55617966 76.18796204 187.56304291 75.19839478 187.57011414 C72.04324291 187.58832105 68.88859125 187.58455294 65.73339844 187.57885742 C63.52676229 187.58342244 61.32012755 187.58872897 59.11349487 187.59474182 C54.4953635 187.60366119 49.87740517 187.60126343 45.25927734 187.59130859 C39.35930737 187.5798261 33.45993655 187.60002589 27.56004524 187.62922573 C23.00450891 187.64762766 18.44911507 187.64728719 13.89355087 187.64158821 C11.7191776 187.64143546 9.54479439 187.64744164 7.3704567 187.65987968 C4.32195398 187.67486154 1.27454421 187.66405917 -1.77392578 187.64697266 C-3.10375488 187.66147461 -3.10375488 187.66147461 -4.46044922 187.67626953 C-12.13807377 187.58676889 -18.93008427 185.66103733 -24.89941406 180.70776367 C-30.59283317 173.63412175 -31.11460349 167.90894012 -31.05957031 159.12573242 C-31.05856323 158.3640979 -31.05755615 157.60246338 -31.05651855 156.81774902 C-31.05131086 153.98940512 -31.03734967 151.16108279 -31.02441406 148.33276367 C-31.00378906 142.00088867 -30.98316406 135.66901367 -30.96191406 129.14526367 C-10.50191406 129.14526367 9.95808594 129.14526367 31.03808594 129.14526367 C31.03808594 132.77526367 31.03808594 136.40526367 31.03808594 140.14526367 C35.65808594 140.14526367 40.27808594 140.14526367 45.03808594 140.14526367 C45.03808594 132.88526367 45.03808594 125.62526367 45.03808594 118.14526367 C39.68976563 118.18006836 39.68976563 118.18006836 34.23339844 118.21557617 C30.75488643 118.23120312 27.27637843 118.24333054 23.79785156 118.25512695 C21.39256013 118.26514362 18.98728074 118.27876076 16.58203125 118.29614258 C13.11162326 118.32058207 9.64137721 118.33179047 6.17089844 118.34057617 C5.10694855 118.35089874 4.04299866 118.36122131 2.94680786 118.37185669 C-6.3382528 118.3732314 -16.16198558 117.72160453 -23.96191406 112.14526367 C-29.62584807 106.48132967 -31.15820676 99.19188337 -31.24407959 91.36335754 C-31.24160217 90.68625229 -31.23912476 90.00914703 -31.23657227 89.31152344 C-31.2416832 88.57378693 -31.24679413 87.83605042 -31.25205994 87.07595825 C-31.2658403 84.66277718 -31.26500811 82.2498854 -31.26269531 79.83666992 C-31.26658832 78.1433044 -31.27092423 76.44993985 -31.27568054 74.75657654 C-31.28311771 71.21707994 -31.28286951 67.67768314 -31.27758789 64.13818359 C-31.27179362 59.62149935 -31.28873534 55.10522523 -31.31193256 50.58860874 C-31.32672362 47.09427029 -31.32753437 43.60002943 -31.32442284 40.10566521 C-31.32493325 38.44123459 -31.33011798 36.7767981 -31.34023476 35.11239815 C-31.39344386 25.13617614 -31.42232373 16.53943168 -25.83691406 7.83276367 C-18.44022396 0.9184664 -9.69949214 -0.00524855 0 0 Z " fill="#000000" transform="translate(209.9619140625,-0.145263671875)"/>
<path d="M0 0 C20.46 0 40.92 0 62 0 C62 61.71 62 123.42 62 187 C41.54 187 21.08 187 0 187 C0 125.29 0 63.58 0 0 Z " fill="#000000" transform="translate(925,0)"/>
</svg>
