<?xml version="1.0" encoding="UTF-8"?>
<svg version="1.1" xmlns="http://www.w3.org/2000/svg" width="1350" height="1080">
<path d="M0 0 C20.46 0 40.92 0 62 0 C62 23.76 62 47.52 62 72 C66.62 72 71.24 72 76 72 C76 48.24 76 24.48 76 0 C96.13 0 116.26 0 137 0 C137 65.34 137 130.68 137 198 C175.94 198 214.88 198 255 198 C255 200.31 255 202.62 255 205 C255.66 204.67 256.32 204.34 257 204 C269.14915321 203.01141153 281.48512505 203.03761139 292.4375 208.8125 C296.17791508 212.00553726 298.44747852 215.34243557 300 220 C300.09322613 222.43316907 300.13038727 224.83717098 300.12025452 227.27018738 C300.12153615 228.38884208 300.12153615 228.38884208 300.12284368 229.53009588 C300.12449443 232.03595728 300.11898371 234.54175215 300.11352539 237.04760742 C300.11324341 238.84113056 300.11340147 240.63465381 300.1139679 242.42817688 C300.11425543 247.30388686 300.10836579 252.17957236 300.10139394 257.05527663 C300.09515309 262.14820339 300.09455602 267.24113068 300.09336853 272.33406067 C300.09025738 281.98127568 300.08204688 291.62847939 300.07201904 301.27568942 C300.05876402 314.30983007 300.05335625 327.34397379 300.04751682 340.37811947 C300.03810686 360.91875478 300.01818649 381.45936624 300 402 C353.13 402 406.26 402 461 402 C461 404.64 461 407.28 461 410 C461.72832031 410.10570312 462.45664063 410.21140625 463.20703125 410.3203125 C466.23060541 411.05611936 468.1276226 412.12785108 470.6875 413.875 C471.45449219 414.38804687 472.22148438 414.90109375 473.01171875 415.4296875 C475 417 475 417 477 420 C479.90541083 418.66542667 482.132092 417.1254597 484.5625 415.0625 C496.52052362 405.91550432 516.31482989 406.63985968 530.62109375 408.4609375 C540.042159 410.54361773 548.53738563 414.88884532 554 423 C556.45242434 427.95763497 557.37359828 431.48848401 557.36076355 437.1058197 C557.36332682 437.78558682 557.3658901 438.46535393 557.36853105 439.16572005 C557.37343955 441.42444855 557.35702568 443.68249606 557.34057617 445.94116211 C557.33972926 447.56778955 557.34020629 449.19441814 557.34190369 450.82104492 C557.34276256 455.22348374 557.32515425 459.62567613 557.30418181 464.02805781 C557.28539708 468.63380981 557.28366316 473.23956778 557.28010559 477.84535217 C557.2707904 486.56104294 557.24618374 495.2766205 557.21605712 503.99226147 C557.18249674 513.91724922 557.16602298 523.84224244 557.15097082 533.76727283 C557.1196337 554.17825907 557.0646282 574.58909015 557 595 C536.87 595 516.74 595 496 595 C496 549.13 496 503.26 496 456 C491.05 456 486.1 456 481 456 C481 501.87 481 547.74 481 595 C460.87 595 440.74 595 420 595 C420 549.13 420 503.26 420 456 C415.38 456 410.76 456 406 456 C406 501.87 406 547.74 406 595 C385.54 595 365.08 595 344 595 C344 546.82 344 498.64 344 449 C341.69 449 339.38 449 337 449 C337.00276538 449.64622787 337.00553076 450.29245573 337.00837994 450.95826626 C337.07473783 466.70879932 337.12432816 482.4592835 337.15543652 498.20992184 C337.17088154 505.82692942 337.19192561 513.44384348 337.22631836 521.06079102 C337.25629339 527.70253409 337.27559218 534.3442094 337.28226548 540.98601824 C337.28616408 544.50027996 337.29527644 548.0143479 337.31719017 551.52854729 C337.34149954 555.45909025 337.3419648 559.38944654 337.34057617 563.32006836 C337.35675491 565.05284782 337.35675491 565.05284782 337.3732605 566.82063293 C337.34349973 574.62144295 336.74966662 581.56291672 331.75 587.8125 C326.22070565 592.21080233 321.00459855 595.10414118 313.83457947 595.14717102 C312.60067474 595.15790398 312.60067474 595.15790398 311.34184265 595.16885376 C310.44778214 595.17154266 309.55372162 595.17423157 308.63256836 595.17700195 C307.2097908 595.18685875 307.2097908 595.18685875 305.75827026 595.19691467 C302.61879391 595.21662523 299.47936542 595.22830732 296.33984375 595.23828125 C295.26501802 595.24235678 294.1901923 595.2464323 293.0827961 595.25063133 C287.39024168 595.27148573 281.6977113 595.28578838 276.00512695 595.29516602 C270.1433085 595.30620961 264.28187181 595.34058796 258.42018795 595.38033772 C253.89808986 595.40656665 249.37608172 595.41486359 244.85391426 595.41844749 C242.69430536 595.42329973 240.5347001 595.43487453 238.37516594 595.45348549 C213.08822379 595.6578078 213.08822379 595.6578078 205.76792908 588.95674133 C201.15094723 584.03167536 199.87825033 580.53573314 199.85282898 573.77070618 C199.84209602 571.81295006 199.84209602 571.81295006 199.83114624 569.81564331 C199.82830597 568.36578393 199.82559424 566.91592429 199.82299805 565.46606445 C199.81673264 563.94167425 199.81008577 562.41728557 199.80308533 560.89289856 C199.78204933 555.88303693 199.77168244 550.87317502 199.76171875 545.86328125 C199.75767083 544.1376818 199.7535539 542.41208251 199.74936867 540.68648338 C199.73031694 532.57812841 199.71608663 524.46978254 199.7077567 516.36140949 C199.69798804 507.00735889 199.67167821 497.65354516 199.63125581 488.29957801 C199.60107275 481.06632931 199.58628569 473.83314841 199.58297569 466.59983796 C199.58062742 462.28135461 199.57169644 457.96312432 199.54651451 453.64470863 C199.52319074 449.57921817 199.51901768 445.51414659 199.52927589 441.44860649 C199.52977035 439.96033457 199.52347664 438.47204173 199.50971985 436.98383331 C199.43944298 428.9273988 199.48986414 422.83009346 204 416 C213.78371211 406.30982243 225.86158528 408 239 408 C239 356.52 239 305.04 239 252 C234.38 252 229.76 252 225 252 C225 297.87 225 343.74 225 391 C204.54 391 184.08 391 163 391 C163 342.82 163 294.64 163 245 C160.36 245 157.72 245 155 245 C155 293.18 155 341.36 155 391 C134.87 391 114.74 391 94 391 C94 368.23 94 345.46 94 322 C89.38 322 84.76 322 80 322 C80 344.77 80 367.54 80 391 C59.54 391 39.08 391 18 391 C17.93224953 369.23368354 17.87699868 347.4674526 17.84456348 325.70105743 C17.82910221 315.59428632 17.80802678 305.48758542 17.77368164 295.38085938 C17.7437567 286.57065391 17.72441962 277.76049931 17.71773452 268.95024443 C17.71382751 264.28635072 17.70466084 259.62260252 17.68280983 254.95875549 C17.6623958 250.5658843 17.65617613 246.17321808 17.66067696 241.78030396 C17.65985395 240.17109563 17.65391761 238.56188021 17.64238358 236.95271301 C17.57715287 227.37975359 17.74774256 219.97404079 23.125 211.75 C36.65986171 198.80361054 60.18012202 204 76 204 C76 174.96 76 145.92 76 116 C71.38 116 66.76 116 62 116 C62 139.43 62 162.86 62 187 C41.54 187 21.08 187 0 187 C0 125.29 0 63.58 0 0 Z M80 252 C80 259.26 80 266.52 80 274 C84.62 274 89.24 274 94 274 C94 266.74 94 259.48 94 252 C89.38 252 84.76 252 80 252 Z M261 456 C261 486.36 261 516.72 261 548 C265.62 548 270.24 548 275 548 C275 517.64 275 487.28 275 456 C270.38 456 265.76 456 261 456 Z " fill="#000000" transform="translate(624,234)"/>
<path d="M0 0 C2.04301049 -0.00202471 4.08602028 -0.00493944 6.12902832 -0.00869751 C10.39549694 -0.01310216 14.66177618 -0.00674992 18.92822266 0.00732422 C24.3716871 0.02441484 29.81470763 0.01456366 35.25815582 -0.00339317 C39.47230315 -0.01428138 43.68634683 -0.01076163 47.90049744 -0.0030098 C49.90657098 -0.00102169 51.91265422 -0.00341768 53.91871643 -0.01044846 C79.8119678 -0.08130294 79.8119678 -0.08130294 89.3125 8.19140625 C93.38881123 13.62328324 94.41515967 19.55803898 94.32951355 26.19396973 C94.33207682 26.93584455 94.3346401 27.67771937 94.33728105 28.44207525 C94.34218603 30.90497059 94.32578124 33.36724016 94.30932617 35.83007812 C94.30847919 37.60463446 94.30895644 39.37919184 94.31065369 41.15374756 C94.31151227 45.95486644 94.29390866 50.75575918 94.27293181 55.55682564 C94.2541422 60.58031179 94.25241277 65.60380347 94.24885559 70.62731934 C94.23954184 80.13274838 94.21493711 89.63807357 94.18480712 99.14345694 C94.14496272 111.99323674 94.12880282 124.84304507 94.11130047 137.69287109 C94.08311556 157.92813765 94.02334151 178.16318506 93.96875 198.3984375 C143.79875 198.3984375 193.62875 198.3984375 244.96875 198.3984375 C244.96875 200.3784375 244.96875 202.3584375 244.96875 204.3984375 C245.85175781 204.36363281 246.73476563 204.32882812 247.64453125 204.29296875 C257.83853747 204.06302876 267.87037413 204.48518981 275.96875 211.3984375 C280.13495597 216.91584541 281.11714028 220.91283408 281.08900452 227.66862488 C281.09028615 228.78727958 281.09028615 228.78727958 281.09159368 229.92853338 C281.09324443 232.43439478 281.08773371 234.94018965 281.08227539 237.44604492 C281.08199341 239.23956806 281.08215147 241.03309131 281.0827179 242.82661438 C281.08300543 247.70232436 281.07711579 252.57800986 281.07014394 257.45371413 C281.06390309 262.54664089 281.06330602 267.63956818 281.06211853 272.73249817 C281.05900738 282.37971318 281.05079688 292.02691689 281.04076904 301.67412692 C281.02751402 314.70826757 281.02210625 327.74241129 281.01626682 340.77655697 C281.00685686 361.31719228 280.98693649 381.85780374 280.96875 402.3984375 C330.79875 402.3984375 380.62875 402.3984375 431.96875 402.3984375 C431.96875 417.9084375 431.96875 433.4184375 431.96875 449.3984375 C406.99464917 449.48880626 382.02068117 449.56245944 357.04645824 449.60568619 C345.44993922 449.6262925 333.85352916 449.65437626 322.25708008 449.70019531 C312.14708056 449.7401221 302.03715997 449.76588434 291.92708379 449.77479148 C286.57615434 449.7799963 281.22545067 449.79218943 275.87459373 449.82135773 C270.83244988 449.84861906 265.79062364 449.85686086 260.74841309 449.85086823 C258.90341271 449.85196368 257.05840111 449.85985341 255.21346474 449.8752594 C233.23755424 450.04968088 233.23755424 450.04968088 225.98619366 443.64825821 C221.00295045 438.32634092 219.66741804 433.12647771 219.72824097 425.92570496 C219.72567769 424.8106123 219.72567769 424.8106123 219.72306263 423.67299253 C219.71977372 421.18708838 219.73076147 418.70145537 219.74169922 416.21557617 C219.74226346 414.43161017 219.74194652 412.64764371 219.74081421 410.86367798 C219.74024021 406.02317866 219.75200222 401.18277838 219.76596212 396.34230208 C219.77846156 391.28275666 219.77963936 386.22320899 219.78201294 381.16365051 C219.78823001 371.58377596 219.80464393 362.00394704 219.82471192 352.42409259 C219.84706382 341.51729816 219.85806257 330.61050156 219.86810279 319.70368993 C219.88900994 297.26857963 219.92459307 274.83351305 219.96875 252.3984375 C215.34875 252.3984375 210.72875 252.3984375 205.96875 252.3984375 C205.96875 298.2684375 205.96875 344.1384375 205.96875 391.3984375 C185.50875 391.3984375 165.04875 391.3984375 143.96875 391.3984375 C143.96875 343.2184375 143.96875 295.0384375 143.96875 245.3984375 C141.32875 245.3984375 138.68875 245.3984375 135.96875 245.3984375 C135.96875 293.5784375 135.96875 341.7584375 135.96875 391.3984375 C115.50875 391.3984375 95.04875 391.3984375 73.96875 391.3984375 C73.96875 343.2184375 73.96875 295.0384375 73.96875 245.3984375 C67.03875 245.7284375 60.10875 246.0584375 52.96875 246.3984375 C51.96714844 248.60660156 50.96554687 250.81476563 49.93359375 253.08984375 C48.93744563 255.28451005 47.94102494 257.4790524 46.94458008 259.67358398 C46.26460927 261.17150228 45.58491135 262.6695445 44.90551758 264.16772461 C44.24585819 265.62229554 43.58469419 267.07618505 42.92202759 268.52938843 C42.25920734 269.99490285 41.60627766 271.46492812 40.96298218 272.93911743 C39.38597614 276.51266098 37.75391616 279.83767349 35.59423828 283.09716797 C32.81430423 287.49123433 30.41803647 291.42695251 31.40734863 296.76498413 C33.2012917 302.35869798 35.85380149 307.52106728 38.58062744 312.70910645 C40.74649561 316.90523198 42.61036692 321.22637389 44.51171875 325.546875 C45.27438719 327.23544753 46.03962656 328.92286111 46.80737305 330.60913086 C48.41706408 334.14776571 50.0242402 337.68751111 51.62817383 341.22875977 C55.16488691 349.03462135 58.70906774 356.83698418 62.27372742 364.63012695 C63.59713065 367.52494638 64.91661221 370.42154334 66.23550415 373.31842041 C67.13807113 375.29610438 68.04684605 377.27085571 68.95581055 379.24560547 C69.48988525 380.41881348 70.02395996 381.59202148 70.57421875 382.80078125 C71.03981201 383.81648193 71.50540527 384.83218262 71.98510742 385.87866211 C72.96875 388.3984375 72.96875 388.3984375 72.96875 391.3984375 C51.51875 391.3984375 30.06875 391.3984375 7.96875 391.3984375 C2.35875 377.5384375 -3.25125 363.6784375 -9.03125 349.3984375 C-9.36125 363.2584375 -9.69125 377.1184375 -10.03125 391.3984375 C-29.83125 391.3984375 -49.63125 391.3984375 -70.03125 391.3984375 C-70.03125 329.6884375 -70.03125 267.9784375 -70.03125 204.3984375 C-50.23125 204.3984375 -30.43125 204.3984375 -10.03125 204.3984375 C-9.70125 217.5984375 -9.37125 230.7984375 -9.03125 244.3984375 C-7.96003906 241.59472656 -6.88882813 238.79101562 -5.78515625 235.90234375 C-4.74991047 233.19823944 -3.71374589 230.49448893 -2.67749023 227.79077148 C-1.9558236 225.90637457 -1.23511808 224.0216093 -0.51538086 222.13647461 C0.5171887 219.43246416 1.55316726 216.72978187 2.58984375 214.02734375 C2.91278915 213.17942764 3.23573456 212.33151154 3.56846619 211.457901 C5.85487829 205.51230921 5.85487829 205.51230921 6.96875 204.3984375 C15.21875 204.3984375 23.46875 204.3984375 31.96875 204.3984375 C31.96875 176.0184375 31.96875 147.6384375 31.96875 118.3984375 C27.34875 118.3984375 22.72875 118.3984375 17.96875 118.3984375 C17.96875 141.1684375 17.96875 163.9384375 17.96875 187.3984375 C-2.16125 187.3984375 -22.29125 187.3984375 -43.03125 187.3984375 C-43.1215819 165.3713517 -43.19525044 143.34441613 -43.23849869 121.31719208 C-43.2591143 111.08932356 -43.28721584 100.8615784 -43.33300781 90.63378906 C-43.37290614 81.7181078 -43.39869009 72.80251589 -43.40760398 63.88674784 C-43.41281364 59.16691431 -43.42503746 54.44733637 -43.45417023 49.72758484 C-43.48138664 45.28214312 -43.48968244 40.83706147 -43.48368073 36.39154434 C-43.48477818 34.76297675 -43.49269502 33.1343967 -43.5080719 31.50590134 C-43.59242548 22.10885374 -43.43130658 15.09723851 -37.49609375 7.41015625 C-27.1087104 -1.59578481 -12.87718289 -0.04513147 0 0 Z M17.96875 48.3984375 C17.96875 55.6584375 17.96875 62.9184375 17.96875 70.3984375 C22.58875 70.3984375 27.20875 70.3984375 31.96875 70.3984375 C31.96875 63.1384375 31.96875 55.8784375 31.96875 48.3984375 C27.34875 48.3984375 22.72875 48.3984375 17.96875 48.3984375 Z " fill="#000000" transform="translate(239.03125,437.6015625)"/>
<path d="M0 0 C20.46 0 40.92 0 62 0 C62 23.76 62 47.52 62 72 C66.62 72 71.24 72 76 72 C76 48.24 76 24.48 76 0 C96.13 0 116.26 0 137 0 C137 65.34 137 130.68 137 198 C186.83 198 236.66 198 288 198 C288 199.98 288 201.96 288 204 C288.95519531 203.96519531 289.91039062 203.93039062 290.89453125 203.89453125 C301.31125098 203.67643443 311.64857224 203.8707324 320 211 C323.92284813 216.19512319 325.12282492 219.75445521 325.14717102 226.19132996 C325.15790398 228.13646484 325.15790398 228.13646484 325.16885376 230.12089539 C325.17169402 231.56130957 325.17440575 233.00172402 325.17700195 234.44213867 C325.1832674 235.9566768 325.18991427 237.47121338 325.19691467 238.98574829 C325.21795028 243.96314423 325.22831754 248.94054046 325.23828125 253.91796875 C325.24232919 255.6324242 325.24644612 257.34687949 325.25063133 259.06133461 C325.269683 267.11736384 325.2839133 275.17338391 325.2922433 283.22943133 C325.30201185 292.52292208 325.3283214 301.81617441 325.36874419 311.10958117 C325.39892798 318.29612115 325.41371438 325.48259287 325.41702431 332.669195 C325.4193725 336.95973337 325.42830246 341.25001703 325.45348549 345.54048729 C325.47681054 349.57971373 325.48098182 353.61851855 325.47072411 357.65779495 C325.47022968 359.13639162 325.4765225 360.61500935 325.49028015 362.0935421 C325.57573637 371.82587337 325.27924891 378.52171625 318.3125 385.8125 C310.63267024 390.88408569 303.17000677 391.43134771 294.14624023 391.34057617 C292.39015615 391.34111858 292.39015615 391.34111858 290.59859562 391.34167194 C286.83508348 391.33944518 283.07202543 391.31665593 279.30859375 391.29296875 C276.97465225 391.28855408 274.64070777 391.2854959 272.3067627 391.28381348 C263.68362963 391.26812914 255.06056028 391.22624531 246.4375 391.1875 C227.153125 391.125625 207.86875 391.06375 188 391 C188 342.82 188 294.64 188 245 C185.36 245 182.72 245 180 245 C180 249.95 180 254.9 180 260 C159.54 260 139.08 260 118 260 C118 257.36 118 254.72 118 252 C113.38 252 108.76 252 104 252 C104 282.36 104 312.72 104 344 C108.62 344 113.24 344 118 344 C118 321.56 118 299.12 118 276 C138.46 276 158.92 276 180 276 C180 313.95 180 351.9 180 391 C150.95274249 391.16065467 150.95274249 391.16065467 136.55779362 391.20101547 C128.78672009 391.22314189 121.01581916 391.25118932 113.24487305 391.30175781 C106.4302736 391.34608162 99.61586106 391.36916334 92.80112648 391.37950897 C90.20610428 391.38687825 87.61109186 391.40126857 85.01614952 391.42292023 C81.37081491 391.45211613 77.72624397 391.45594909 74.08081055 391.45410156 C73.01697144 391.46848267 71.95313232 391.48286377 70.85705566 391.49768066 C63.19364327 391.45587627 54.94683833 390.49513792 48.99055004 385.22052383 C44.55482607 380.30647173 42.75227946 376.33101996 42.73257446 369.65045166 C42.71977951 367.69063354 42.71977951 367.69063354 42.70672607 365.69122314 C42.70742509 364.244995 42.70834815 362.79876694 42.70947266 361.35253906 C42.70348759 359.82799958 42.6966821 358.30346313 42.68911743 356.77893066 C42.67144505 352.63825037 42.66676145 348.49765273 42.66548586 344.35693836 C42.66406407 341.76848555 42.65979389 339.18005374 42.65449142 336.59160614 C42.63598503 327.55682542 42.62782132 318.52210373 42.62939453 309.48730469 C42.63059517 301.07350566 42.60950967 292.65996347 42.5779072 284.24622941 C42.55172493 277.01719657 42.5410281 269.7882475 42.54230535 262.55916762 C42.54281454 258.24406773 42.53715587 253.92919593 42.51594925 249.61414337 C42.49653461 245.55272367 42.49646418 241.49174883 42.51098251 237.43031311 C42.51306793 235.94366046 42.50838559 234.45697974 42.4962616 232.97037506 C42.43488471 224.91994698 42.49629875 218.8257041 47 212 C55.24540454 203.83342342 64.86746263 204 76 204 C76 174.96 76 145.92 76 116 C71.38 116 66.76 116 62 116 C62 139.43 62 162.86 62 187 C41.54 187 21.08 187 0 187 C0 125.29 0 63.58 0 0 Z M250 252 C250 282.36 250 312.72 250 344 C254.62 344 259.24 344 264 344 C264 313.64 264 283.28 264 252 C259.38 252 254.76 252 250 252 Z " fill="#000000" transform="translate(491,438)"/>
<path d="M0 0 C20.46 0 40.92 0 62 0 C62 3.96 62 7.92 62 12 C87.08 12 112.16 12 138 12 C138 27.51 138 43.02 138 59 C112.92 59 87.84 59 62 59 C62 85.73 62 112.46 62 140 C66.62 140 71.24 140 76 140 C76 116.9 76 93.8 76 70 C96.46 70 116.92 70 138 70 C138.08021762 93.30767476 138.08021762 93.30767476 138.09765625 103.28125 C138.10958848 110.07327418 138.1236693 116.86524417 138.15087891 123.65722656 C138.17268955 129.13613604 138.18458594 134.61498736 138.18975449 140.09393692 C138.19343551 142.17899617 138.20062348 144.26405242 138.21146011 146.34908676 C138.22608434 149.28080754 138.22797339 152.21229129 138.22705078 155.14404297 C138.23424133 155.99641037 138.24143188 156.84877777 138.24884033 157.72697449 C138.22443412 164.94491038 138.09460012 173.74003214 133.0625 179.375 C122.83990143 189.20346317 108.81478501 187.58892095 95.62109375 187.53125 C93.44116544 187.53394891 91.26123831 187.53783464 89.08131409 187.54284668 C84.52813171 187.54872165 79.97526467 187.5402425 75.42211914 187.52148438 C69.60628156 187.49868276 63.791182 187.51183881 57.97537136 187.53577423 C53.47901414 187.55027469 48.98282998 187.54560695 44.48646736 187.53526306 C42.34280369 187.53260823 40.19912394 187.53582141 38.05547905 187.54518127 C35.05276121 187.55541851 32.05121525 187.53974623 29.04858398 187.51757812 C28.17609512 187.52567505 27.30360626 187.53377197 26.40467834 187.54211426 C18.77341338 187.43851531 11.99276688 185.48335975 6.0625 180.5625 C1.54756546 174.95303588 -0.12854164 170.44560048 -0.12025452 163.26066589 C-0.12162918 162.33664978 -0.12300385 161.41263367 -0.12442017 160.46061707 C-0.12082489 159.45936295 -0.11722961 158.45810883 -0.11352539 157.42651367 C-0.11367142 156.36264435 -0.11381744 155.29877502 -0.1139679 154.20266724 C-0.113272 150.69108023 -0.10549468 147.17954647 -0.09765625 143.66796875 C-0.09579092 141.23130828 -0.09436756 138.79464743 -0.09336853 136.35798645 C-0.08955239 129.94811974 -0.07972978 123.53827572 -0.06866455 117.12841797 C-0.05843104 110.58626614 -0.05386675 104.04411065 -0.04882812 97.50195312 C-0.03810673 84.66795878 -0.02104111 71.83398128 0 59 C-4.95 59 -9.9 59 -15 59 C-15 43.49 -15 27.98 -15 12 C-10.05 12 -5.1 12 0 12 C0 8.04 0 4.08 0 0 Z " fill="#000000" transform="translate(947,438)"/>
<path d="M0 0 C20.46 0 40.92 0 62 0 C62 3.96 62 7.92 62 12 C86.75 12 111.5 12 137 12 C137 27.51 137 43.02 137 59 C112.25 59 87.5 59 62 59 C62 85.73 62 112.46 62 140 C66.62 140 71.24 140 76 140 C76 116.9 76 93.8 76 70 C96.13 70 116.26 70 137 70 C137.20054405 95.13485385 137.20054405 95.13485385 137.24414062 105.8671875 C137.27400425 113.18410419 137.30929394 120.50070737 137.37719727 127.81738281 C137.43161242 133.71776256 137.461441 139.617806 137.47438622 145.51841736 C137.4836089 147.76705721 137.50161882 150.01567913 137.52865028 152.26417542 C137.56506574 155.41935683 137.56993996 158.57315712 137.56762695 161.72851562 C137.59459152 163.11603531 137.59459152 163.11603531 137.62210083 164.53158569 C137.56199225 172.13327335 135.00694711 176.90952658 129.75 182.3125 C122.87668362 186.53021687 115.98099134 187.44473694 108.04907227 187.40405273 C106.62279007 187.41434761 106.62279007 187.41434761 105.16769409 187.42485046 C102.05044266 187.44302768 98.93369888 187.43929398 95.81640625 187.43359375 C93.63361957 187.43815979 91.45083433 187.44346662 89.26805115 187.44947815 C84.70297387 187.45839138 80.13807171 187.45600632 75.57299805 187.44604492 C69.74143556 187.43455586 63.91047868 187.45477541 58.0789957 187.48396206 C53.5740733 187.50236359 49.06929498 187.50202372 44.56434441 187.49632454 C42.41509082 187.49617182 40.26582716 187.50217511 38.11660957 187.51461601 C35.10413419 187.52959942 32.09276456 187.51879492 29.08032227 187.50170898 C28.20469131 187.51137695 27.32906036 187.52104492 26.42689514 187.53100586 C18.82153424 187.4412992 12.46446434 185.21136022 6.0625 181.125 C1.42950071 176.35160679 -0.12765013 170.82151764 -0.12025452 164.34295654 C-0.12231651 162.94637314 -0.12231651 162.94637314 -0.12442017 161.52157593 C-0.12082489 160.50737579 -0.11722961 159.49317566 -0.11352539 158.44824219 C-0.11367142 157.37476532 -0.11381744 156.30128845 -0.1139679 155.19528198 C-0.11327103 151.64579246 -0.10548914 148.09635536 -0.09765625 144.546875 C-0.09579127 142.08636504 -0.09436774 139.6258547 -0.09336853 137.16534424 C-0.08954967 130.68805924 -0.07972472 124.21079665 -0.06866455 117.73352051 C-0.0584369 111.12443342 -0.053868 104.51534272 -0.04882812 97.90625 C-0.03810192 84.93749015 -0.02103303 71.96874694 0 59 C-4.95 59 -9.9 59 -15 59 C-15 43.49 -15 27.98 -15 12 C-10.05 12 -5.1 12 0 12 C0 8.04 0 4.08 0 0 Z " fill="#000000" transform="translate(479,234)"/>
<path d="M0 0 C1.34003334 -0.00503792 1.34003334 -0.00503792 2.70713806 -0.01017761 C5.6560099 -0.01966414 8.60482479 -0.02162971 11.55371094 -0.02270508 C13.61008731 -0.02591974 15.66646346 -0.02928398 17.72283936 -0.03279114 C22.03349335 -0.03877701 26.3441273 -0.04063164 30.65478516 -0.04003906 C36.16353724 -0.03993758 41.67216002 -0.05357748 47.1808815 -0.07081127 C51.42924584 -0.08196143 55.67757925 -0.08395733 59.92595673 -0.08342934 C61.95601598 -0.08460538 63.98607613 -0.08900595 66.01612091 -0.0967617 C68.86370235 -0.10662054 71.71100733 -0.10366015 74.55859375 -0.09765625 C75.80270271 -0.10608551 75.80270271 -0.10608551 77.07194519 -0.11468506 C86.57125689 -0.06409898 94.84640462 1.58771858 102.03808594 8.14526367 C106.82438911 14.88300726 107.18722851 21.94620599 107.13574219 29.94604492 C107.13473511 30.68802124 107.13372803 31.42999756 107.13269043 32.19445801 C107.12748406 34.9489091 107.11352289 37.70333804 107.10058594 40.45776367 C107.07996094 46.62463867 107.05933594 52.79151367 107.03808594 59.14526367 C86.57808594 59.14526367 66.11808594 59.14526367 45.03808594 59.14526367 C45.03808594 55.51526367 45.03808594 51.88526367 45.03808594 48.14526367 C40.41808594 48.14526367 35.79808594 48.14526367 31.03808594 48.14526367 C31.03808594 55.40526367 31.03808594 62.66526367 31.03808594 70.14526367 C32.62153809 70.12955322 34.20499023 70.11384277 35.83642578 70.09765625 C41.74425109 70.04311436 47.65205437 70.00882536 53.56005859 69.98046875 C56.11087799 69.96543731 58.66167179 69.94500663 61.21240234 69.91894531 C64.89134057 69.88231395 68.56993529 69.86548022 72.24902344 69.85229492 C73.37859467 69.83681107 74.50816589 69.82132721 75.67196655 69.80537415 C84.86071638 69.80344692 93.84211972 70.95338576 101.03808594 77.14526367 C106.4140279 83.96745089 107.15426357 90.04140339 107.19921875 98.64428711 C107.20418365 99.3703717 107.20914856 100.0964563 107.21426392 100.84454346 C107.22879088 103.23125174 107.23567194 105.61789355 107.24121094 108.00463867 C107.245452 109.23537487 107.245452 109.23537487 107.24977875 110.49097443 C107.26473372 114.83374856 107.27398625 119.17648979 107.27832031 123.51928711 C107.2837969 127.98209689 107.30781829 132.44460036 107.33629227 136.9073143 C107.35500975 140.35964815 107.36012909 143.81190957 107.36165619 147.26428986 C107.36466314 148.9083651 107.37262465 150.55243967 107.38584137 152.19646454 C107.53647227 172.37473686 107.53647227 172.37473686 102.27636719 179.54760742 C101.64085937 180.05420898 101.00535156 180.56081055 100.35058594 181.08276367 C99.72796875 181.60741211 99.10535156 182.13206055 98.46386719 182.67260742 C91.74144721 186.75369008 85.80032756 187.58819369 78.10888672 187.54931641 C77.14842438 187.55617966 76.18796204 187.56304291 75.19839478 187.57011414 C72.04324291 187.58832105 68.88859125 187.58455294 65.73339844 187.57885742 C63.52676229 187.58342244 61.32012755 187.58872897 59.11349487 187.59474182 C54.4953635 187.60366119 49.87740517 187.60126343 45.25927734 187.59130859 C39.35930737 187.5798261 33.45993655 187.60002589 27.56004524 187.62922573 C23.00450891 187.64762766 18.44911507 187.64728719 13.89355087 187.64158821 C11.7191776 187.64143546 9.54479439 187.64744164 7.3704567 187.65987968 C4.32195398 187.67486154 1.27454421 187.66405917 -1.77392578 187.64697266 C-3.10375488 187.66147461 -3.10375488 187.66147461 -4.46044922 187.67626953 C-12.13807377 187.58676889 -18.93008427 185.66103733 -24.89941406 180.70776367 C-30.59283317 173.63412175 -31.11460349 167.90894012 -31.05957031 159.12573242 C-31.05856323 158.3640979 -31.05755615 157.60246338 -31.05651855 156.81774902 C-31.05131086 153.98940512 -31.03734967 151.16108279 -31.02441406 148.33276367 C-31.00378906 142.00088867 -30.98316406 135.66901367 -30.96191406 129.14526367 C-10.50191406 129.14526367 9.95808594 129.14526367 31.03808594 129.14526367 C31.03808594 132.77526367 31.03808594 136.40526367 31.03808594 140.14526367 C35.65808594 140.14526367 40.27808594 140.14526367 45.03808594 140.14526367 C45.03808594 132.88526367 45.03808594 125.62526367 45.03808594 118.14526367 C39.68976563 118.18006836 39.68976563 118.18006836 34.23339844 118.21557617 C30.75488643 118.23120312 27.27637843 118.24333054 23.79785156 118.25512695 C21.39256013 118.26514362 18.98728074 118.27876076 16.58203125 118.29614258 C13.11162326 118.32058207 9.64137721 118.33179047 6.17089844 118.34057617 C5.10694855 118.35089874 4.04299866 118.36122131 2.94680786 118.37185669 C-6.3382528 118.3732314 -16.16198558 117.72160453 -23.96191406 112.14526367 C-29.62584807 106.48132967 -31.15820676 99.19188337 -31.24407959 91.36335754 C-31.24160217 90.68625229 -31.23912476 90.00914703 -31.23657227 89.31152344 C-31.2416832 88.57378693 -31.24679413 87.83605042 -31.25205994 87.07595825 C-31.2658403 84.66277718 -31.26500811 82.2498854 -31.26269531 79.83666992 C-31.26658832 78.1433044 -31.27092423 76.44993985 -31.27568054 74.75657654 C-31.28311771 71.21707994 -31.28286951 67.67768314 -31.27758789 64.13818359 C-31.27179362 59.62149935 -31.28873534 55.10522523 -31.31193256 50.58860874 C-31.32672362 47.09427029 -31.32753437 43.60002943 -31.32442284 40.10566521 C-31.32493325 38.44123459 -31.33011798 36.7767981 -31.34023476 35.11239815 C-31.39344386 25.13617614 -31.42232373 16.53943168 -25.83691406 7.83276367 C-18.44022396 0.9184664 -9.69949214 -0.00524855 0 0 Z " fill="#000000" transform="translate(376.9619140625,437.854736328125)"/>
<path d="M0 0 C33.99 0 67.98 0 103 0 C103 15.84 103 31.68 103 48 C89.14 48 75.28 48 61 48 C61 55.26 61 62.52 61 70 C74.86 70 88.72 70 103 70 C103 85.84 103 101.68 103 118 C89.14 118 75.28 118 61 118 C61 125.26 61 132.52 61 140 C74.86 140 88.72 140 103 140 C103 155.51 103 171.02 103 187 C69.01 187 35.02 187 0 187 C0 125.29 0 63.58 0 0 Z " fill="#000000" transform="translate(776,234)"/>
<path d="M0 0 C20.46 0 40.92 0 62 0 C62 61.71 62 123.42 62 187 C41.54 187 21.08 187 0 187 C0 125.29 0 63.58 0 0 Z " fill="#000000" transform="translate(1092,438)"/>
</svg>
