<?xml version="1.0" encoding="UTF-8"?>
<svg version="1.1" xmlns="http://www.w3.org/2000/svg" width="1350" height="394">
<path d="M0 0 C1.28016495 -0.00811203 2.5603299 -0.01622406 3.87928772 -0.02458191 C6.56798481 -0.0378115 9.25547998 -0.02932473 11.9440918 -0.00512695 C15.34850751 0.02344058 18.74948793 -0.00726051 22.15360641 -0.05287075 C49.10562409 -0.36373382 49.10562409 -0.36373382 60.09765625 7.83203125 C60.89316895 8.39696289 61.68868164 8.96189453 62.50830078 9.54394531 C75.75064385 19.49133799 80.76910649 36.26902067 83.08381653 51.90458679 C85.11373995 67.76713456 84.67358624 83.9311363 84.76721191 99.89538574 C84.79741191 104.52214915 84.84380227 109.14875035 84.88867188 113.77539062 C84.97383032 122.79418461 85.04155555 131.81301284 85.09765625 140.83203125 C90.62634319 142.75534072 94.40852285 143.24921681 100.09765625 141.83203125 C103.89311383 139.79372996 107.18663996 137.76023139 109.09765625 133.83203125 C110.11846386 125.21187806 106.96834387 119.7263488 102.91015625 112.26953125 C91.63508857 90.58356001 85.01285412 67.84233471 92.28515625 43.64453125 C95.94169781 32.37030561 101.83732691 24.23026259 110.09765625 15.83203125 C110.79761719 15.11917969 111.49757813 14.40632812 112.21875 13.671875 C123.13350453 3.27782435 132.65920329 -0.07118496 147.36914062 0.16601562 C149.34116541 0.22065195 151.31317032 0.27600983 153.28515625 0.33203125 C155.35216622 0.36449565 157.41922934 0.39371536 159.48632812 0.41992188 C163.94124096 0.48315339 168.39494965 0.56899551 172.84912109 0.671875 C180.61500337 0.84990171 188.38142292 0.96825404 196.1484375 1.08203125 C210.13259947 1.28698996 224.11424118 1.56311942 238.09765625 1.83203125 C238.09765625 24.93203125 238.09765625 48.03203125 238.09765625 71.83203125 C243.37765625 71.83203125 248.65765625 71.83203125 254.09765625 71.83203125 C254.09765625 88.99203125 254.09765625 106.15203125 254.09765625 123.83203125 C248.81765625 123.83203125 243.53765625 123.83203125 238.09765625 123.83203125 C238.09765625 147.92203125 238.09765625 172.01203125 238.09765625 196.83203125 C218.62765625 196.83203125 199.15765625 196.83203125 179.09765625 196.83203125 C179.09765625 150.63203125 179.09765625 104.43203125 179.09765625 56.83203125 C166.98373227 55.71729045 166.98373227 55.71729045 161.09765625 59.83203125 C157.32758027 64.12572889 155.49693849 67.03927187 155.5625 72.90234375 C156.66390304 78.93192242 160.08462571 84.30548177 162.95117188 89.66748047 C173.88911255 110.31820066 180.60878956 131.53597496 174.13671875 154.9140625 C168.26392653 171.40645269 157.06593536 184.80860058 142.09765625 193.83203125 C142.85949219 194.13496094 143.62132812 194.43789062 144.40625 194.75 C161.56129562 201.71053661 174.75807153 210.96332525 182.9375 228.05859375 C186.27940027 236.04764827 188.28681361 244.39050025 190.09765625 252.83203125 C190.91556641 251.18267578 190.91556641 251.18267578 191.75 249.5 C196.35112578 240.40292882 201.11740799 232.35544453 208.09765625 224.83203125 C208.9175 223.92066406 209.73734375 223.00929687 210.58203125 222.0703125 C223.53786767 208.3286931 240.42940746 198.43911661 259.09765625 194.83203125 C260.41765625 194.83203125 261.73765625 194.83203125 263.09765625 194.83203125 C263.09765625 131.14203125 263.09765625 67.45203125 263.09765625 1.83203125 C282.23765625 1.83203125 301.37765625 1.83203125 321.09765625 1.83203125 C321.09765625 66.18203125 321.09765625 130.53203125 321.09765625 196.83203125 C318.45765625 197.16203125 315.81765625 197.49203125 313.09765625 197.83203125 C313.42765625 198.16203125 313.75765625 198.49203125 314.09765625 198.83203125 C314.19146927 200.67321154 314.21509579 202.51800766 314.21118164 204.36157227 C314.21110611 205.5427211 314.21103058 206.72386993 314.21095276 207.94081116 C314.20579147 209.22620285 314.20063019 210.51159454 314.1953125 211.8359375 C314.19319008 213.79816505 314.19319008 213.79816505 314.19102478 215.80003357 C314.18720035 219.28365984 314.17737071 222.76724464 314.1663208 226.25085449 C314.15610507 229.80329833 314.15152681 233.35574884 314.14648438 236.90820312 C314.13574837 243.88282957 314.11867285 250.85742842 314.09765625 257.83203125 C312.97198242 257.47761963 311.84630859 257.12320801 310.68652344 256.75805664 C309.17268069 256.29392888 307.65867438 255.83033437 306.14453125 255.3671875 C305.40702637 255.13342407 304.66952148 254.89966064 303.90966797 254.65881348 C291.67321371 250.95251558 278.81220797 251.5355584 267.09765625 256.83203125 C256.39350318 262.83825048 250.28521647 270.6114812 245.91015625 281.89453125 C242.34215085 294.79424308 243.583773 308.83934673 249.60546875 320.8359375 C255.89757413 330.4204236 264.15028934 335.79480445 275.09765625 338.83203125 C283.13555689 340.49504518 290.8531283 341.05800589 298.09765625 336.83203125 C299.41025206 334.92264356 299.41025206 334.92264356 299.09765625 332.83203125 C294.56151501 327.62692528 294.56151501 327.62692528 277.09765625 328.83203125 C277.09765625 313.98203125 277.09765625 299.13203125 277.09765625 283.83203125 C284.4048382 283.64287122 291.70309011 283.46270449 299.01059723 283.3662796 C302.41365456 283.31887651 305.81467276 283.25563149 309.21655273 283.15307617 C313.12588279 283.03596967 317.03440045 282.99280062 320.9453125 282.953125 C322.15598892 282.90667343 323.36666534 282.86022186 324.61402893 282.81236267 C332.84506169 282.80745734 332.84506169 282.80745734 336.36251831 285.68460083 C339.66721392 289.79830361 341.72407298 294.08486471 344.09765625 298.83203125 C344.42765625 265.50203125 344.75765625 232.17203125 345.09765625 197.83203125 C366.97046875 197.73921875 366.97046875 197.73921875 389.28515625 197.64453125 C393.84481201 197.61721924 398.40446777 197.58990723 403.10229492 197.56176758 C408.78381348 197.54821777 408.78381348 197.54821777 411.4655304 197.54570007 C413.29046339 197.54117196 415.11538894 197.53079058 416.94026184 197.51530457 C433.89406605 197.37895719 451.20395908 198.31172533 467.47265625 203.51953125 C468.28516846 203.77226807 469.09768066 204.02500488 469.93481445 204.28540039 C481.52546355 208.07082196 491.85910771 213.85006689 501.09765625 221.83203125 C501.83242188 222.42371094 502.5671875 223.01539063 503.32421875 223.625 C511.93642202 230.80183606 519.70203947 240.42833525 524.09765625 250.83203125 C524.09765625 251.82203125 524.09765625 252.81203125 524.09765625 253.83203125 C524.75765625 253.83203125 525.41765625 253.83203125 526.09765625 253.83203125 C526.34386719 252.98125 526.59007812 252.13046875 526.84375 251.25390625 C528.20424326 247.5411583 530.01108895 244.37326341 532.16015625 241.08203125 C532.75461548 240.16623291 532.75461548 240.16623291 533.36108398 239.23193359 C537.10031713 233.60499676 541.39040778 228.67498418 546.09765625 223.83203125 C546.72027344 223.14753906 547.34289062 222.46304688 547.984375 221.7578125 C558.50079503 210.5358884 572.61345355 202.66009882 587.09765625 197.83203125 C569.77265625 197.33703125 569.77265625 197.33703125 552.09765625 196.83203125 C552.07578247 190.97988892 552.07578247 190.97988892 552.0534668 185.00952148 C552.00313685 172.12127602 551.93669448 159.23315592 551.86194134 146.34503078 C551.81701077 138.53073413 551.77758983 130.71648277 551.7512207 122.90209961 C551.72821839 116.08962548 551.69479552 109.27729502 551.64895469 102.46493489 C551.62505243 98.85913891 551.6063041 95.25348496 551.60004234 91.64761162 C551.59284976 87.61830312 551.56238902 83.58948775 551.5300293 79.56030273 C551.53146439 78.36987366 551.53289948 77.17944458 551.53437805 75.95294189 C551.45514638 68.97988662 551.17134777 63.36108448 546.41015625 57.89453125 C542.29292165 56.00282886 538.12314467 56.33934488 533.78515625 57.39453125 C530.35847783 60.31355361 529.26556912 64.22811594 528.81154823 68.56495476 C528.68858102 71.93027434 528.66125514 75.28450768 528.6652832 78.65209961 C528.64999573 80.5702095 528.64999573 80.5702095 528.63439941 82.52706909 C528.60692255 86.01623565 528.59755769 89.50523923 528.59154534 92.99449992 C528.58213726 96.64740449 528.55593199 100.30018848 528.53153992 103.95301819 C528.48793794 110.86241627 528.45935238 117.77179087 528.43621653 124.68128449 C528.4040619 134.02354949 528.3485995 143.3656746 528.29447079 152.70783329 C528.20986422 167.41585759 528.15630301 182.12382747 528.09765625 196.83203125 C489.15765625 196.83203125 450.21765625 196.83203125 410.09765625 196.83203125 C410.06027344 187.54046875 410.02289062 178.24890625 409.984375 168.67578125 C409.95409742 162.78774553 409.92307238 156.89972944 409.88867188 151.01171875 C409.83421469 141.66701036 409.78280046 132.32235651 409.7512207 122.97753906 C409.72820566 116.17128137 409.69476867 109.36516718 409.64895469 102.55902338 C409.62506953 98.95710802 409.60631003 95.35533436 409.60004234 91.75334167 C409.59283996 87.72663222 409.56236442 83.70041425 409.5300293 79.67382812 C409.53146439 78.48699432 409.53289948 77.30016052 409.53437805 76.07736206 C409.46141715 69.64818783 408.99246709 64.62415348 406.09765625 58.83203125 C402.03931062 56.1264675 398.85632779 56.31259879 394.09765625 56.83203125 C390.26932729 58.24684847 389.35758777 59.32203904 387.49682617 62.97290039 C385.92229662 66.82989763 385.66977076 70.34072885 385.5859375 74.515625 C385.5679863 75.2159938 385.5500351 75.91636261 385.53153992 76.63795471 C385.4778807 78.84842114 385.44368693 81.05867737 385.41015625 83.26953125 C385.37694368 84.77932586 385.34245044 86.28909288 385.30664062 87.79882812 C385.21979628 91.47658522 385.15935641 95.15342505 385.09765625 98.83203125 C390.37765625 98.83203125 395.65765625 98.83203125 401.09765625 98.83203125 C401.09765625 115.99203125 401.09765625 133.15203125 401.09765625 150.83203125 C395.81765625 150.83203125 390.53765625 150.83203125 385.09765625 150.83203125 C385.09765625 166.01203125 385.09765625 181.19203125 385.09765625 196.83203125 C365.62765625 196.83203125 346.15765625 196.83203125 326.09765625 196.83203125 C325.97674715 163.66263409 325.97674715 163.66263409 325.95117188 149.67382812 C325.93342874 140.04674438 325.91266571 130.41973988 325.87133789 120.79272461 C325.84124245 113.7788106 325.82203595 106.7649614 325.81539077 99.75098461 C325.81151225 96.04420527 325.8025313 92.33761119 325.78046608 88.6308918 C325.62719256 61.81059764 326.5831217 36.68187647 345.9140625 15.92578125 C356.94655432 5.34722022 369.79046957 -0.11404295 385 0 C386.28016495 -0.00811203 387.5603299 -0.01622406 388.87928772 -0.02458191 C391.56798481 -0.0378115 394.25547998 -0.02932473 396.9440918 -0.00512695 C400.34850751 0.02344058 403.74948793 -0.00726051 407.15360641 -0.05287075 C434.10562409 -0.36373382 434.10562409 -0.36373382 445.09765625 7.83203125 C446.29092529 8.67942871 446.29092529 8.67942871 447.50830078 9.54394531 C461.44298577 20.01141189 465.90684778 37.46727319 468.28637695 53.78735352 C468.56618851 55.80096422 468.83333701 57.81632842 469.09765625 59.83203125 C469.33548828 58.41664062 469.33548828 58.41664062 469.578125 56.97265625 C471.13845102 48.38655286 473.21640357 40.71721989 477.09765625 32.83203125 C477.505 31.99285156 477.91234375 31.15367188 478.33203125 30.2890625 C485.89363877 16.30008859 499.19483868 6.04438822 514.09765625 0.83203125 C516.73069763 0.54441833 516.73069763 0.54441833 519.58374023 0.49389648 C521.19713539 0.46023232 521.19713539 0.46023232 522.84312439 0.42588806 C524.57593407 0.40843285 524.57593407 0.40843285 526.34375 0.390625 C528.14780052 0.36996727 528.14780052 0.36996727 529.98829651 0.34889221 C532.53601494 0.32562778 535.08379414 0.30835854 537.6315918 0.29663086 C541.49058609 0.26984067 545.34678009 0.19494846 549.20507812 0.11914062 C567.4724431 -0.07544549 578.42469094 1.77601968 592.01171875 14.62109375 C594.17016912 16.90888946 596.13280241 19.37596395 598.09765625 21.83203125 C598.42765625 15.23203125 598.75765625 8.63203125 599.09765625 1.83203125 C664.10765625 1.83203125 729.11765625 1.83203125 796.09765625 1.83203125 C795.28515625 98.76953125 795.28515625 98.76953125 794.92651367 129.37084961 C794.88303445 138.42783527 794.88303445 138.42783527 794.85688782 147.48487854 C794.84478022 151.51792978 794.79609698 155.54875406 794.72517395 159.58119202 C794.63583039 164.72934915 794.60929599 169.87428058 794.62771666 175.02314103 C794.62386689 176.90981309 794.59817215 178.7966006 794.54785955 180.68260562 C793.97328558 190.0729685 793.97328558 190.0729685 797.39272904 198.45158124 C800.9070839 201.62479283 804.91057517 203.65064901 809.09765625 205.83203125 C811.21849695 207.69490293 812.63790394 209.49529965 814.34765625 211.76953125 C815.40726563 213.14431641 815.40726563 213.14431641 816.48828125 214.546875 C818.09765625 216.83203125 818.09765625 216.83203125 819.09765625 218.83203125 C819.98904297 217.671875 819.98904297 217.671875 820.8984375 216.48828125 C830.77817368 203.94489071 842.06162501 195.65330859 858.12890625 193.1484375 C875.12641555 191.33686085 891.46140708 193.85670294 905.25 204.4921875 C917.59206237 215.91602204 922.21673216 233.40658419 923.36730003 249.63536072 C923.46180812 253.474431 923.46968072 257.30249413 923.43823242 261.14257812 C923.43738305 262.59319542 923.43786731 264.04381399 923.43955994 265.49443054 C923.44040925 269.37570816 923.42295931 273.256699 923.40183806 277.13791084 C923.38289062 281.21509412 923.38130677 285.29228632 923.37776184 289.36950684 C923.36849381 297.06492605 923.34395224 304.76021509 923.31371337 312.45557737 C923.28000461 321.22722619 923.26364223 329.99888172 923.24862707 338.77057934 C923.21739701 356.79115176 923.16245184 374.8115461 923.09765625 392.83203125 C903.62765625 392.83203125 884.15765625 392.83203125 864.09765625 392.83203125 C864.06007202 386.6758313 864.06007202 386.6758313 864.02172852 380.39526367 C863.938386 366.86043645 863.84973306 353.32564844 863.75831699 339.79087353 C863.70300253 331.58186966 863.64952344 323.37286145 863.6003418 315.16381836 C863.55747821 308.0101115 863.5111947 300.8564364 863.4607777 293.70277864 C863.4341943 289.91381824 863.40934165 286.12486408 863.38858223 282.33586693 C863.36899785 278.77119004 863.34484867 275.20657352 863.31716537 271.64195061 C863.3033336 269.70666414 863.2943715 267.77134479 863.28553772 265.83602905 C863.2757489 264.68758011 863.26596008 263.53913116 863.25587463 262.35588074 C863.24942208 261.35573535 863.24296953 260.35558996 863.23632145 259.32513714 C863.19998876 256.70060221 863.19998876 256.70060221 862.09765625 253.83203125 C859.81059794 252.68850209 858.50500863 252.72868686 855.97265625 252.76953125 C854.05453125 252.80046875 854.05453125 252.80046875 852.09765625 252.83203125 C850.57989802 256.90518614 849.84361666 260.29973243 849.81918335 264.64071655 C849.80801987 265.77646118 849.79685638 266.91220581 849.78535461 268.08236694 C849.78211433 269.9295079 849.78211433 269.9295079 849.77880859 271.81396484 C849.76374016 273.77574677 849.76374016 273.77574677 849.74836731 275.77716064 C849.72113689 279.35105918 849.70593865 282.92491844 849.69293928 286.49889326 C849.67727818 290.23853512 849.65049749 293.97809716 849.62490845 297.71768188 C849.57817331 304.79356224 849.54140378 311.8694577 849.50823557 318.94541323 C849.4628191 328.51107638 849.4019657 338.0766406 849.34198761 347.64222145 C849.24794431 362.70544172 849.1744894 377.76869059 849.09765625 392.83203125 C829.62765625 392.83203125 810.15765625 392.83203125 790.09765625 392.83203125 C790.04867187 383.21691406 789.9996875 373.60179687 789.94921875 363.6953125 C789.91384182 357.61131902 789.87796824 351.52733523 789.83984375 345.44335938 C789.77939683 335.78233015 789.72100308 326.12131917 789.67578125 316.46020508 C789.64283856 309.42437809 789.60299475 302.38862982 789.55486619 295.35288972 C789.52962382 291.62757502 789.50783588 287.90231239 789.49431229 284.1769352 C789.47908547 280.01798824 789.44845159 275.85929158 789.41650391 271.70043945 C789.41434372 270.46541687 789.41218353 269.23039429 789.40995789 267.95794678 C789.39321266 266.25639183 789.39321266 266.25639183 789.37612915 264.52046204 C789.37059839 263.53690892 789.36506763 262.55335581 789.35936928 261.53999805 C789.05277038 258.36759336 788.42605208 255.16042708 786.09765625 252.83203125 C783.42706774 252.69087964 780.77333387 252.78956018 778.09765625 252.83203125 C776.57989802 256.90518614 775.84361666 260.29973243 775.81918335 264.64071655 C775.80801987 265.77646118 775.79685638 266.91220581 775.78535461 268.08236694 C775.78211433 269.9295079 775.78211433 269.9295079 775.77880859 271.81396484 C775.76374016 273.77574677 775.76374016 273.77574677 775.74836731 275.77716064 C775.72113689 279.35105918 775.70593865 282.92491844 775.69293928 286.49889326 C775.67727818 290.23853512 775.65049749 293.97809716 775.62490845 297.71768188 C775.57817331 304.79356224 775.54140378 311.8694577 775.50823557 318.94541323 C775.4628191 328.51107638 775.4019657 338.0766406 775.34198761 347.64222145 C775.24794431 362.70544172 775.1744894 377.76869059 775.09765625 392.83203125 C755.62765625 392.83203125 736.15765625 392.83203125 716.09765625 392.83203125 C715.76765625 374.35203125 715.43765625 355.87203125 715.09765625 336.83203125 C712.45765625 341.78203125 709.81765625 346.73203125 707.09765625 351.83203125 C704.49297778 355.34627997 701.96699219 358.57316786 699.09765625 361.83203125 C698.43378906 362.63898438 697.76992188 363.4459375 697.0859375 364.27734375 C684.59794318 379.00440544 665.50734143 392.8216229 645.89889526 395.22392273 C642.52716953 395.38805918 639.17647867 395.43891411 635.80078125 395.43359375 C633.95211456 395.44644913 633.95211456 395.44644913 632.06610107 395.45956421 C629.47443075 395.4709799 626.8826964 395.47210402 624.29101562 395.46337891 C620.37125789 395.45706924 616.45454086 395.50402276 612.53515625 395.5546875 C598.89359215 395.62341361 587.34331491 395.25524035 575.09765625 388.83203125 C573.95965576 388.23624268 572.82165527 387.6404541 571.64916992 387.02661133 C565.31959416 383.57049649 559.59281216 379.48686263 554.09765625 374.83203125 C553.22367188 374.10371094 552.3496875 373.37539063 551.44921875 372.625 C539.61725071 362.36731342 531.97508148 350.72135651 525.09765625 336.83203125 C524.49630859 338.03085937 524.49630859 338.03085937 523.8828125 339.25390625 C511.38491874 363.39949692 491.97003856 381.53405092 465.87426758 389.99243164 C448.22005508 395.34298214 430.33573878 395.85848486 412.09765625 393.83203125 C412.09765625 374.69203125 412.09765625 355.55203125 412.09765625 335.83203125 C418.69765625 335.50203125 425.29765625 335.17203125 432.09765625 334.83203125 C443.66923362 332.99986483 455.43612507 329.9353099 463.6328125 320.95703125 C471.31056184 309.81917621 472.66555336 296.37713461 470.51953125 283.3125 C468.13470762 274.17428946 463.58897547 267.33802737 455.55859375 262.2109375 C439.44999525 254.20415624 421.62336687 255.4363661 404.09765625 254.83203125 C404.09765625 300.37203125 404.09765625 345.91203125 404.09765625 392.83203125 C384.62765625 392.83203125 365.15765625 392.83203125 345.09765625 392.83203125 C344.76765625 382.60203125 344.43765625 372.37203125 344.09765625 361.83203125 C342.11765625 364.80203125 340.13765625 367.77203125 338.09765625 370.83203125 C329.28468656 382.11388251 317.73594202 390.28593599 304.09765625 394.83203125 C302.44981578 394.95377859 300.79770882 395.02143931 299.14575195 395.05664062 C298.13652176 395.07915894 297.12729156 395.10167725 296.08747864 395.12487793 C291.42713293 395.19646035 286.76694227 395.25353774 282.10620117 395.29199219 C279.66524459 395.31843494 277.22439604 395.35917449 274.78393555 395.41503906 C259.92367677 395.75086412 248.11746534 395.51907905 235.09765625 387.83203125 C234.06535889 387.25606201 233.03306152 386.68009277 231.96948242 386.08666992 C213.35517092 375.40411086 200.49469629 357.62611132 191.09765625 338.83203125 C190.76765625 356.65203125 190.43765625 374.47203125 190.09765625 392.83203125 C170.62765625 392.83203125 151.15765625 392.83203125 131.09765625 392.83203125 C131.06027344 383.52886719 131.02289063 374.22570312 130.984375 364.640625 C130.95410026 358.74803196 130.92307735 352.8554586 130.88867188 346.96289062 C130.83419757 337.60931177 130.78278411 328.25578759 130.7512207 318.90209961 C130.72821839 312.08962548 130.69479552 305.27729502 130.64895469 298.46493489 C130.62505243 294.85913891 130.6063041 291.25348496 130.60004234 287.64761162 C130.59284976 283.61830312 130.56238902 279.58948775 130.5300293 275.56030273 C130.53146439 274.36987366 130.53289948 273.17944458 130.53437805 271.95294189 C130.45514638 264.97988662 130.17134777 259.36108448 125.41015625 253.89453125 C121.29292165 252.00282886 117.12314467 252.33934488 112.78515625 253.39453125 C109.35847783 256.31355361 108.26556912 260.22811594 107.81154823 264.56495476 C107.68858102 267.93027434 107.66125514 271.28450768 107.6652832 274.65209961 C107.65509155 275.93083954 107.6448999 277.20957947 107.63439941 278.52706909 C107.60692255 282.01623565 107.59755769 285.50523923 107.59154534 288.99449992 C107.58213726 292.64740449 107.55593199 296.30018848 107.53153992 299.95301819 C107.48793794 306.86241627 107.45935238 313.77179087 107.43621653 320.68128449 C107.4040619 330.02354949 107.3485995 339.3656746 107.29447079 348.70783329 C107.20986422 363.41585759 107.15630301 378.12382747 107.09765625 392.83203125 C87.62765625 392.83203125 68.15765625 392.83203125 48.09765625 392.83203125 C47.97674715 359.08047915 47.97674715 359.08047915 47.95117188 344.86523438 C47.93341667 335.07555389 47.91261913 325.28595123 47.87133789 315.49633789 C47.84127867 308.36451579 47.82204436 301.23275723 47.81539077 294.10087353 C47.81150625 290.33044341 47.8024856 286.56019497 47.78046608 282.78982353 C47.75983859 279.22836396 47.75387434 275.66715787 47.75833321 272.10564423 C47.75713672 270.20124038 47.74113393 268.29686301 47.72439575 266.39253235 C47.77101964 253.12709571 50.20690843 240.79972868 56.09765625 228.83203125 C56.505 227.99285156 56.91234375 227.15367187 57.33203125 226.2890625 C63.81399552 214.2974286 74.08109549 205.88292355 86.09765625 199.83203125 C75.95150208 189.68587708 57.44241968 198.17357324 43.09765625 197.83203125 C43.09765625 262.51203125 43.09765625 327.19203125 43.09765625 393.83203125 C5.47765625 393.83203125 -32.14234375 393.83203125 -70.90234375 393.83203125 C-73.85873114 387.91925648 -76.60735175 382.3804385 -79.0390625 376.30859375 C-79.4546492 375.27690063 -79.4546492 375.27690063 -79.87863159 374.22436523 C-80.47501575 372.74268695 -81.06955605 371.26026536 -81.66238403 369.77716064 C-83.2887064 365.70875933 -84.92883337 361.6459139 -86.56640625 357.58203125 C-86.91218216 356.72276031 -87.25795807 355.86348938 -87.61421204 354.97817993 C-92.22960385 343.51743836 -96.92497486 332.08933816 -101.61264038 320.65802002 C-103.3995136 316.29997513 -105.1840191 311.94101672 -106.96142578 307.57910156 C-108.21267169 304.50930987 -109.47967412 301.4469006 -110.76123047 298.38964844 C-111.31750943 297.04497425 -111.87366958 295.7002509 -112.4296875 294.35546875 C-112.91042725 293.20739746 -113.39116699 292.05932617 -113.88647461 290.87646484 C-115.21509962 286.89474076 -115.58890698 284.38086197 -113.87109375 280.50561523 C-113.1440625 279.30400757 -113.1440625 279.30400757 -112.40234375 278.078125 C-111.85336426 277.15612305 -111.30438477 276.23412109 -110.73876953 275.28417969 C-110.13274902 274.2893457 -109.52672852 273.29451172 -108.90234375 272.26953125 C-107.60670608 270.09716879 -106.31249074 267.92395754 -105.01953125 265.75 C-104.6820285 265.18548126 -104.34452576 264.62096252 -103.99679565 264.03933716 C-100.25234487 257.77055991 -96.63836958 251.42841249 -93.02734375 245.08203125 C-92.36384598 243.91836702 -91.70018974 242.75479314 -91.03637695 241.59130859 C-89.68759576 239.22704131 -88.3393804 236.86245307 -86.99169922 234.49755859 C-83.71465535 228.74758094 -80.4334167 222.99999904 -77.15106201 217.25305176 C-76.11403345 215.43689488 -75.07773368 213.62032366 -74.04150391 211.80371094 C-73.09670166 210.14903809 -73.09670166 210.14903809 -72.1328125 208.4609375 C-71.58004639 207.4922876 -71.02728027 206.5236377 -70.45776367 205.52563477 C-69.9444751 204.63674561 -69.43118652 203.74785645 -68.90234375 202.83203125 C-68.38069641 201.52875885 -68.38069641 201.52875885 -67.84851074 200.19915771 C-65.90234375 197.83203125 -65.90234375 197.83203125 -62.08686829 197.23075867 C-60.46068899 197.21623921 -58.83412392 197.22961534 -57.20825195 197.2644043 C-55.87623245 197.2633091 -55.87623245 197.2633091 -54.51730347 197.26219177 C-51.57862512 197.26567856 -48.64152681 197.304591 -45.703125 197.34375 C-43.66717902 197.35307425 -41.63122182 197.36019219 -39.59526062 197.3651886 C-34.23392824 197.38428888 -28.87327205 197.43341616 -23.51220703 197.4887085 C-18.04273629 197.53983545 -12.57315639 197.56268865 -7.10351562 197.58789062 C3.6305056 197.64153165 14.36402472 197.72688138 25.09765625 197.83203125 C25.03706 180.88980211 24.95951662 163.94774602 24.86194134 147.00569153 C24.81702548 139.13873639 24.77760117 131.27182609 24.7512207 123.40478516 C24.72820644 116.5457904 24.69477031 109.68693806 24.64895469 102.82805634 C24.62506849 99.19819545 24.60630966 95.56847521 24.60004234 91.9385376 C24.59284056 87.88069666 24.56236592 83.82334354 24.5300293 79.765625 C24.53146439 78.56944046 24.53289948 77.37325592 24.53437805 76.14082336 C24.46173404 69.69082286 24.0061481 64.64147785 21.09765625 58.83203125 C17.03931062 56.1264675 13.85632779 56.31259879 9.09765625 56.83203125 C5.26932729 58.24684847 4.35758777 59.32203904 2.49682617 62.97290039 C0.92229662 66.82989763 0.66977076 70.34072885 0.5859375 74.515625 C0.5590107 75.56617821 0.5590107 75.56617821 0.53153992 76.63795471 C0.4778807 78.84842114 0.44368693 81.05867737 0.41015625 83.26953125 C0.37694368 84.77932586 0.34245044 86.28909288 0.30664062 87.79882812 C0.21979628 91.47658522 0.15935641 95.15342505 0.09765625 98.83203125 C5.37765625 98.83203125 10.65765625 98.83203125 16.09765625 98.83203125 C16.09765625 115.99203125 16.09765625 133.15203125 16.09765625 150.83203125 C10.81765625 150.83203125 5.53765625 150.83203125 0.09765625 150.83203125 C0.09765625 166.01203125 0.09765625 181.19203125 0.09765625 196.83203125 C-19.37234375 196.83203125 -38.84234375 196.83203125 -58.90234375 196.83203125 C-59.02325285 163.66263409 -59.02325285 163.66263409 -59.04882812 149.67382812 C-59.06657126 140.04674438 -59.08733429 130.41973988 -59.12866211 120.79272461 C-59.15875755 113.7788106 -59.17796405 106.7649614 -59.18460923 99.75098461 C-59.18848775 96.04420527 -59.1974687 92.33761119 -59.21953392 88.6308918 C-59.37280744 61.81059764 -58.4168783 36.68187647 -39.0859375 15.92578125 C-28.05344568 5.34722022 -15.20953043 -0.11404295 0 0 Z M610.09765625 58.83203125 C610.42765625 103.38203125 610.75765625 147.93203125 611.09765625 193.83203125 C617.36765625 193.83203125 623.63765625 193.83203125 630.09765625 193.83203125 C634.38765625 194.16203125 638.67765625 194.49203125 643.09765625 194.83203125 C643.09765625 149.95203125 643.09765625 105.07203125 643.09765625 58.83203125 C632.20765625 58.83203125 621.31765625 58.83203125 610.09765625 58.83203125 Z M701.09765625 58.83203125 C701.09765625 104.37203125 701.09765625 149.91203125 701.09765625 196.83203125 C684.59765625 196.83203125 668.09765625 196.83203125 651.09765625 196.83203125 C653.66809496 198.11725061 656.19762992 199.34035838 658.8203125 200.49609375 C684.80422352 212.15481038 703.01132705 231.09047434 715.09765625 256.83203125 C715.42765625 256.83203125 715.75765625 256.83203125 716.09765625 256.83203125 C716.195625 255.5275 716.29359375 254.22296875 716.39453125 252.87890625 C717.9071804 234.51253131 722.05353796 218.77371022 736.09765625 205.83203125 C739.64921549 203.28269284 743.32347105 201.03313118 747.09765625 198.83203125 C748.08765625 198.17203125 749.07765625 197.51203125 750.09765625 196.83203125 C745.80765625 196.83203125 741.51765625 196.83203125 737.09765625 196.83203125 C737.09765625 151.29203125 737.09765625 105.75203125 737.09765625 58.83203125 C725.21765625 58.83203125 713.33765625 58.83203125 701.09765625 58.83203125 Z M-16.90234375 217.83203125 C-17.46179688 218.85296875 -18.02125 219.87390625 -18.59765625 220.92578125 C-23.50287454 229.83657993 -28.5192343 238.67544788 -33.65234375 247.45703125 C-34.2347583 248.45379883 -34.81717285 249.45056641 -35.41723633 250.47753906 C-38.55792439 255.84496513 -41.71184856 261.20437753 -44.875 266.55859375 C-45.51791992 267.65091309 -46.16083984 268.74323242 -46.82324219 269.86865234 C-48.06050137 271.97045995 -49.30187545 274.06985205 -50.54785156 276.16650391 C-51.1044043 277.11315918 -51.66095703 278.05981445 -52.234375 279.03515625 C-52.72655518 279.86692383 -53.21873535 280.69869141 -53.72583008 281.55566406 C-55.30298414 284.55621632 -55.30298414 284.55621632 -55.90234375 287.83203125 C-54.8240528 290.89839638 -54.8240528 290.89839638 -53.10546875 294.1953125 C-52.64884605 295.1250161 -52.64884605 295.1250161 -52.18299866 296.07350159 C-51.18352157 298.10269133 -50.16791688 300.12335642 -49.15234375 302.14453125 C-48.4546931 303.55486874 -47.75833264 304.96584516 -47.06323242 306.37744141 C-45.66640976 309.21211782 -44.26458099 312.04422495 -42.85888672 314.87451172 C-40.2559474 320.12586823 -37.73098907 325.41365342 -35.21484375 330.70703125 C-34.3478588 332.52093016 -33.48067039 334.33473184 -32.61328125 336.1484375 C-30.61142943 340.34041939 -28.61927865 344.53693174 -26.62890625 348.734375 C-25.53261675 351.0377912 -24.43626393 353.34117726 -23.33984375 355.64453125 C-22.56991089 357.27527588 -22.56991089 357.27527588 -21.78442383 358.93896484 C-21.30642334 359.94137207 -20.82842285 360.9437793 -20.3359375 361.9765625 C-19.91368896 362.86706299 -19.49144043 363.75756348 -19.05639648 364.67504883 C-17.96825698 366.95938316 -17.96825698 366.95938316 -15.90234375 368.83203125 C-15.90234375 319.00203125 -15.90234375 269.17203125 -15.90234375 217.83203125 C-16.23234375 217.83203125 -16.56234375 217.83203125 -16.90234375 217.83203125 Z M595.09765625 259.83203125 C594.54722656 260.22777344 593.99679687 260.62351562 593.4296875 261.03125 C585.47139139 267.16247592 580.46324432 276.16315937 578.09765625 285.83203125 C577.69335062 288.9718305 577.61937971 292.04393706 577.66015625 295.20703125 C577.66772949 296.03702637 577.67530273 296.86702148 577.68310547 297.72216797 C578.02578444 310.5313579 583.73168 321.39316004 592.98828125 330.19921875 C601.73755762 336.97180675 612.98146346 341.06282237 624.09765625 339.83203125 C635.73453245 337.91138178 645.60362116 333.10773645 653.09765625 323.83203125 C661.34961114 312.2909717 663.48992639 300.7614424 662.09765625 286.83203125 C660.01570955 275.51881144 653.83006643 266.38495469 644.78515625 259.39453125 C629.34420259 249.09351148 610.22731873 248.14092843 595.09765625 259.83203125 Z " fill="#000000" transform="translate(303.90234375,-0.83203125)"/>
<path d="M0 0 C19.47 0 38.94 0 59 0 C59 64.35 59 128.7 59 195 C39.53 195 20.06 195 0 195 C0 130.65 0 66.3 0 0 Z " fill="#000000" transform="translate(129,197)"/>
</svg>
